<svg xmlns="http://www.w3.org/2000/svg" viewBox="0 0 147.81 114.89">
  <g style="isolation: isolate">
    <g>
      <polygon points="99.5 28.72 49.75 0 0 28.72 0 86.17 49.75 114.89 99.5 86.17 99.5 85.49 124.88 93.08 147.81 85.49 147.81 28.72 124.88 19.88 99.5 28.72" style="fill: #076b70;mix-blend-mode: hard-light"/>
      <polygon points="147.81 28.72 124.88 19.88 124.88 93.08 147.81 85.49 147.81 28.72" style="fill: #076b70;mix-blend-mode: hard-light"/>
      <polygon points="99.5 28.72 49.75 0 49.75 114.89 99.5 86.17 99.5 85.49 99.76 85.49 99.76 28.72 99.5 28.72" style="fill: #076b70;mix-blend-mode: hard-light"/>
      <g>
        <rect x="88.14" y="37.53" width="5.73" height="36.48" style="fill: #f3b41b"/>
        <polygon points="110.29 66.19 106.48 37.52 100.7 37.52 106.22 74.01 113.83 74.01 119.36 37.52 114.09 37.52 110.29 66.19" style="fill: #f3b41b"/>
        <polygon points="140.51 42.74 140.51 37.52 124.88 37.52 124.88 74.01 140.51 74.01 140.51 68.8 130.61 68.8 130.61 57.59 138.48 57.59 138.48 52.38 130.61 52.38 130.61 42.74 140.51 42.74" style="fill: #f3b41b"/>
        <path d="M211.53,154.88,179.3,173.49v37.22l32.23,18.61,32.24-18.61V173.49Zm19.68,40.47a3.3,3.3,0,0,1-2.68-1.39h-3.85a10.71,10.71,0,0,1-1.1-.06v16.54h-9.14v-5.69A5.46,5.46,0,0,0,212,194.68l-.49,0h0a5.46,5.46,0,0,0-2.9,10.09v5.68h-9.16V193.91c-.32,0-.64,0-.92,0h-3.82a3.3,3.3,0,1,1-.07-3.81h3.89c.28,0,.6,0,.92,0V173.77h9.16v5.48a5.46,5.46,0,0,0,2.9,10.09h0a3.93,3.93,0,0,0,.49,0,5.46,5.46,0,0,0,2.42-10.06v-5.49h9.14v16.45a10.71,10.71,0,0,1,1.1-.06h3.85a3.29,3.29,0,1,1,2.68,5.2Z" transform="translate(-161.86 -136.24)" style="fill: #f3b41b"/>
      </g>
    </g>
  </g>
</svg>
