    <svg
      xmlns="http://www.w3.org/2000/svg"
      viewBox="0 0 232.63 67.93"
      style="fill:#fff;"
    >
      <path d="M133.01.1h-2.82a3.61 3.61 0 00-3.62 3.63v25.36h-11.18V3.73A3.61 3.61 0 00111.77.1h-2.82a3.61 3.61 0 00-3.62 3.63v16.24L95.77 3.41A6.79 6.79 0 0089.91.03H62.39a6.77 6.77 0 00-5.86 10.15l2.92 5h-9.82l-4.94-8.57a6.77 6.77 0 00-11.72 0l-4.95 8.58H11.5a6.29 6.29 0 100 7h12.47l-4.7 8.15H11.5a6.29 6.29 0 100 7h7.82l4.7 8.15h-12.5a6.29 6.29 0 100 7h16.55l4.92 8.53a6.77 6.77 0 0011.72 0l4.92-8.54h9.83l-2.91 5a6.77 6.77 0 005.86 10.15h27.52a6.79 6.79 0 005.86-3.38l9.53-16.41v16.47a3.61 3.61 0 003.62 3.63h2.82a3.61 3.61 0 003.62-3.63V39.05h11.18v25.26a3.61 3.61 0 003.62 3.63H133a3.61 3.61 0 003.62-3.63V3.73A3.61 3.61 0 00133.01.1zM63.5 22.27l4.7 8.15h-9.82l-4.7-8.15zm-24.67 35l-13.51-23.3L38.8 10.63l13.52 23.34zM53.66 45.6l4.71-8.15h9.82l-4.71 8.16zm36.11 15.18h-27L76.32 37.3a6.75 6.75 0 000-6.76L62.81 7.07h27l15.51 26.9zM151.02.1h-2.82a3.61 3.61 0 00-3.62 3.63v60.58a3.61 3.61 0 003.62 3.63h2.82a3.67 3.67 0 003.62-3.63V3.73A3.67 3.67 0 00151.02.1zM194.49-.03h-2.91a3.89 3.89 0 00-3.53 2.82l-9 38.35-9-38.35a4 4 0 00-3.43-2.82h-2.82a3.47 3.47 0 00-3.52 4.43l14.29 60.59a3.65 3.65 0 003.52 2.81h2.11a3.85 3.85 0 003.53-2.81L198.02 4.4a3.57 3.57 0 00-3.53-4.43zM229.01 10.07a3.61 3.61 0 003.63-3.62V3.73A3.61 3.61 0 00229.01.1h-21.69a3.61 3.61 0 00-3.62 3.63v60.58a3.61 3.61 0 003.62 3.66h21.74a3.61 3.61 0 003.63-3.63v-2.71a3.61 3.61 0 00-3.63-3.63h-15.44V38.97h12.7a3.61 3.61 0 003.62-3.62v-2.72a3.61 3.61 0 00-3.62-3.66h-12.7v-18.9z" />
    </svg>