<svg xmlns="http://www.w3.org/2000/svg" viewBox="0 0 407.02 242.69">
  <path d="M183.32,119.13a13.28,13.28,0,1,0-14.8,0v16.42l-17.23,9.94V119.13a13.27,13.27,0,1,0-14.81,0V154l-18.11,10.46a14.29,14.29,0,0,0,0,24.75l18.1,10.44v20.75l-10.68-6.17a14.3,14.3,0,0,0-21.44,12.37v58.14a14.34,14.34,0,0,0,7.15,12.38l57.23,33a14.3,14.3,0,0,0,14.29,0l57.24-33a14.33,14.33,0,0,0,7.14-12.38V226.63A14.29,14.29,0,0,0,226,214.26l-10.63,6.14V199.65l18-10.41a14.29,14.29,0,0,0,0-24.75l-18-10.4v-35a13.28,13.28,0,1,0-14.8,0v26.42l-17.22-9.94Zm-32.06,89.1,17.22,9.94v20.74L151.25,229Zm81.31,76.24-56.71,32.75-56.72-32.75V227.53l49.57,28.62a14.35,14.35,0,0,0,14.29,0l49.57-28.62ZM200.51,229l-17.23,9.94V218.14l17.22-9.94Zm24.66-52.09-49.31,28.47-49.32-28.47,49.32-28.47Z" transform="translate(-104.33 -92.47)"/>
  <g>
    <path d="M277.82,277.52v-5.39a12.47,12.47,0,0,1,12.47-12.47h0a12.47,12.47,0,0,1,12.48,12.47v6.41c0,20.22,8.43,32.69,28,32.69,18.87,0,27.63-11.12,27.63-35.05V255.61c0-24.26-9.77-35.05-29.66-35.05h-2.18a12,12,0,0,1-12-12h0a12,12,0,0,1,12-12h2.85c17.54,0,28.32-10.45,28.32-32v-15.5c0-21.58-9.78-32.7-27-32.7-18.54,0-26.63,11.12-26.63,31.68v2a11.79,11.79,0,0,1-11.79,11.8H291a11.79,11.79,0,0,1-11.79-11.8h0c0-36.06,16.86-57.64,52.58-57.64,34.39,0,52.25,20.91,52.25,57.3v9.44c0,25.28-9.1,41.8-27.64,47.86v.68c20.22,6.4,28.32,23.6,28.32,47.86v21.91c0,36.07-16.86,57.64-53.26,57.64C294.34,335.16,277.82,312.24,277.82,277.52Z" transform="translate(-104.33 -92.47)"/>
    <path d="M404.17,108.87a13,13,0,0,1,13-13h40.9c36.41,0,53.26,19.22,53.26,57.3V274.49c0,38.09-16.85,57.3-53.26,57.3H417.2a13,13,0,0,1-13-13Zm53.26,199c18.54,0,27.64-9.1,27.64-32.36V151.8c0-23.26-9.1-32-27.64-32h-27V307.86Z" transform="translate(-104.33 -92.47)"/>
  </g>
</svg>
