<svg xmlns="http://www.w3.org/2000/svg" viewBox="0 0 645.35 238.14">
  <g>
    <path d="M553.39,227.68V182.27a6.46,6.46,0,0,1,6.49-6.48h5a6.45,6.45,0,0,1,6.48,6.48V290.75a6.46,6.46,0,0,1-6.48,6.49h-5a6.47,6.47,0,0,1-6.49-6.49V245.52h-20v45.23a6.46,6.46,0,0,1-6.48,6.49h-5a6.47,6.47,0,0,1-6.49-6.49V182.27a6.46,6.46,0,0,1,6.49-6.48h5a6.45,6.45,0,0,1,6.48,6.48v45.41Z" transform="translate(-98.27 -175.61)"/>
    <path d="M603.67,290.75a6.59,6.59,0,0,1-6.49,6.49h-5a6.46,6.46,0,0,1-6.48-6.49V182.27a6.45,6.45,0,0,1,6.48-6.48h5a6.58,6.58,0,0,1,6.49,6.48Z" transform="translate(-98.27 -175.61)"/>
    <path d="M647.45,249.3l16-68.65a6.92,6.92,0,0,1,6.3-5H675a6.38,6.38,0,0,1,6.31,7.92L655.74,292a6.89,6.89,0,0,1-6.31,5h-3.78a6.55,6.55,0,0,1-6.31-5L613.75,183.53a6.22,6.22,0,0,1,6.31-7.92h5.05a7.11,7.11,0,0,1,6.3,5Z" transform="translate(-98.27 -175.61)"/>
    <path d="M736.82,175.79a6.46,6.46,0,0,1,6.49,6.48v4.87a6.46,6.46,0,0,1-6.49,6.49H709.25V227.5H732a6.46,6.46,0,0,1,6.48,6.49v4.86a6.46,6.46,0,0,1-6.48,6.49H709.25V279.4h27.57a6.46,6.46,0,0,1,6.49,6.48v4.87a6.46,6.46,0,0,1-6.49,6.49H697.9a6.47,6.47,0,0,1-6.49-6.49V182.27a6.46,6.46,0,0,1,6.49-6.48Z" transform="translate(-98.27 -175.61)"/>
  </g>
  <path d="M479.82,244.45a11.1,11.1,0,1,0,0-12.4H466.08l-8.33-14.42h22.07a11.1,11.1,0,1,0,0-12.4H450.59l-8.75-15.16a12,12,0,0,0-20.73,0l-8.74,15.15H395l5.16-8.94a12,12,0,0,0-10.36-17.95H341.12a12,12,0,0,0-10.36,6l-27.67,47.92a12,12,0,0,0,0,12l27.67,47.92a12,12,0,0,0,10.36,6H389.8a12,12,0,0,0,10.36-17.95l-5.13-8.9H412.4l8.71,15.09a12,12,0,0,0,20.73,0l8.7-15.08h29.28a11.11,11.11,0,1,0,0-12.39H457.7L466,244.45Zm-74.61-26.84L396.89,232H379.52l8.32-14.42Zm-63.84,68.08L314,238.2l27.42-47.49h47.68l-24,41.51a12,12,0,0,0,0,12l24,41.5Zm46.5-26.85-8.33-14.42h17.37l8.33,14.43Zm43.61,20.65L407.64,238.2l23.84-41.29,23.83,41.29Z" transform="translate(-98.27 -175.61)"/>
  <g>
    <path d="M107.53,176.26h2.19a8.48,8.48,0,0,1,8.48,8.47v41.11h20.53V184.73a8.47,8.47,0,0,1,8.47-8.47h2.19a8.47,8.47,0,0,1,8.47,8.47V289.57a8.48,8.48,0,0,1-8.47,8.48H147.2a8.48,8.48,0,0,1-8.47-8.48V243.24H118.2v46.33a8.48,8.48,0,0,1-8.48,8.48h-2.19a8.48,8.48,0,0,1-8.48-8.48V184.73A8.48,8.48,0,0,1,107.53,176.26Z" transform="translate(-98.27 -175.61)"/>
    <path d="M181.31,176.26h35.24a8.47,8.47,0,0,1,8.48,8.47v.45a8.47,8.47,0,0,1-8.48,8.47H192v32.19h17.8a8.48,8.48,0,0,1,8.47,8.48v.45a8.47,8.47,0,0,1-8.47,8.47H192v37.41h24.58a8.48,8.48,0,0,1,8.48,8.48v.44a8.48,8.48,0,0,1-8.48,8.48H181.31a8.48,8.48,0,0,1-8.48-8.48V184.73A8.48,8.48,0,0,1,181.31,176.26Z" transform="translate(-98.27 -175.61)"/>
    <path d="M253.4,235.76l-17.05-48.2a8.47,8.47,0,0,1,8-11.3h2a8.47,8.47,0,0,1,8.05,5.83l11.14,34L277,182a8.47,8.47,0,0,1,8-5.77h0a8.47,8.47,0,0,1,8,11.3L276,235.76l18.08,51a8.47,8.47,0,0,1-8,11.31h-2a8.47,8.47,0,0,1-8.06-5.84l-12.18-37.14-12.5,37.2a8.48,8.48,0,0,1-8,5.78h0a8.47,8.47,0,0,1-8-11.31Z" transform="translate(-98.27 -175.61)"/>
  </g>
  <g>
    <path d="M98.27,393.27v-4.7h8.91V394c0,7.59,3.74,11.2,9.76,11.2s9.88-3.61,9.88-11.32-3.26-12.77-13-20.84c-11.68-9.64-15.54-16.38-15.54-25.9,0-12.65,6.74-20.12,18.91-20.12s18.55,7.47,18.55,20.36v3.37h-8.91v-4c0-7.59-3.49-11.2-9.64-11.2s-9.64,3.61-9.64,11c0,7,3.38,11.8,13.38,20,11.56,9.63,15.3,16.38,15.3,26.62,0,13.13-6.87,20.59-19.16,20.59S98.27,406.28,98.27,393.27Z" transform="translate(-98.27 -175.61)"/>
    <path d="M211.27,375.56l-17-47.34h10l12.05,35.17,12-35.17h9.28l-17,47.34v37h-9.39Z" transform="translate(-98.27 -175.61)"/>
    <path d="M295,393.27v-4.7h8.91V394c0,7.59,3.73,11.2,9.76,11.2s9.87-3.61,9.87-11.32-3.25-12.77-13-20.84c-11.68-9.64-15.53-16.38-15.53-25.9,0-12.65,6.74-20.12,18.9-20.12s18.55,7.47,18.55,20.36v3.37h-8.91v-4c0-7.59-3.49-11.2-9.64-11.2s-9.63,3.61-9.63,11c0,7,3.37,11.8,13.37,20,11.57,9.63,15.3,16.38,15.3,26.62,0,13.13-6.87,20.59-19.15,20.59S295,406.28,295,393.27Z" transform="translate(-98.27 -175.61)"/>
    <path d="M407,336.77H392.1v-8.55h39.27v8.55H416.43v75.77H407Z" transform="translate(-98.27 -175.61)"/>
    <path d="M493.29,328.22h34.57v8.55H502.68v27.47h20.48v8.55H502.68V404h25.18v8.55H493.29Z" transform="translate(-98.27 -175.61)"/>
    <path d="M590.39,328.22H604l12.41,67.33,12.28-67.33h13.73v84.32h-9V342.19L620,412.54h-7.95L598.7,342.19v70.35h-8.31Z" transform="translate(-98.27 -175.61)"/>
    <path d="M705.67,393.27v-4.7h8.92V394c0,7.59,3.73,11.2,9.76,11.2s9.87-3.61,9.87-11.32S731,381.1,721.21,373c-11.68-9.64-15.54-16.38-15.54-25.9,0-12.65,6.75-20.12,18.91-20.12s18.55,7.47,18.55,20.36v3.37h-8.91v-4c0-7.59-3.49-11.2-9.64-11.2s-9.63,3.61-9.63,11c0,7,3.37,11.8,13.37,20,11.57,9.63,15.3,16.38,15.3,26.62,0,13.13-6.87,20.59-19.15,20.59S705.67,406.28,705.67,393.27Z" transform="translate(-98.27 -175.61)"/>
  </g>
</svg>
