<svg xmlns="http://www.w3.org/2000/svg" viewBox="0 0 369.22 236.61">
  <g>
    <path d="M437.16,232V190.32a5.92,5.92,0,0,1,5.94-5.95h4.63a5.93,5.93,0,0,1,5.95,5.95v99.46a5.93,5.93,0,0,1-5.95,6H443.1a5.92,5.92,0,0,1-5.94-6V248.31H418.82v41.47a5.93,5.93,0,0,1-5.95,6h-4.63a5.93,5.93,0,0,1-5.95-6V190.32a5.93,5.93,0,0,1,5.95-5.95h4.63a5.93,5.93,0,0,1,5.95,5.95V232Z" transform="translate(-242.06 -59.11)"/>
    <path d="M483.25,289.78a6,6,0,0,1-5.95,6h-4.63a5.92,5.92,0,0,1-5.94-6V190.32a5.92,5.92,0,0,1,5.94-5.95h4.63a6,6,0,0,1,5.95,5.95Z" transform="translate(-242.06 -59.11)"/>
    <path d="M523.39,251.78l14.71-62.95a6.35,6.35,0,0,1,5.78-4.63h4.79a5.84,5.84,0,0,1,5.78,7.27L531,290.93a6.3,6.3,0,0,1-5.78,4.63h-3.47a6,6,0,0,1-5.78-4.63L492.5,191.47a5.7,5.7,0,0,1,5.78-7.27h4.63a6.52,6.52,0,0,1,5.78,4.63Z" transform="translate(-242.06 -59.11)"/>
    <path d="M605.34,184.37a5.93,5.93,0,0,1,5.95,5.95v4.46a5.93,5.93,0,0,1-5.95,5.95H580.06v31.06h20.82a5.92,5.92,0,0,1,5.94,6v4.46a5.92,5.92,0,0,1-5.94,5.94H580.06v31.23h25.28a5.93,5.93,0,0,1,5.95,5.95v4.46a5.93,5.93,0,0,1-5.95,6H569.65a5.93,5.93,0,0,1-5.95-6V190.32a5.93,5.93,0,0,1,5.95-5.95Z" transform="translate(-242.06 -59.11)"/>
  </g>
  <path d="M320.66,83.27a13.21,13.21,0,1,0-14.74,0V99.59l-17.14,9.9V83.27a13.21,13.21,0,1,0-14.74,0V118l-18,10.4A14.22,14.22,0,0,0,256,153l18,10.39v20.63l-10.63-6.13a14.22,14.22,0,0,0-21.33,12.31v57.84a14.28,14.28,0,0,0,7.11,12.32l57,32.88a14.27,14.27,0,0,0,14.22,0l57-32.88a14.27,14.27,0,0,0,7.1-12.32V190.23a14.22,14.22,0,0,0-21.33-12.31L352.49,184V163.38L370.43,153a14.22,14.22,0,0,0,0-24.63l-17.92-10.35,0-34.78a13.21,13.21,0,1,0-14.74,0v26.29l-17.13-9.89Zm-31.9,88.65,17.13,9.89v20.64l-17.13-9.89Zm80.9,75.86-56.43,32.58L256.8,247.78V191.12l49.32,28.48a14.27,14.27,0,0,0,14.22,0l49.32-28.48Zm-31.91-55.25-17.14,9.9V181.78l17.14-9.89Zm24.54-51.82L313.23,169l-49.07-28.33,49.07-28.32Z" transform="translate(-242.06 -59.11)"/>
  <path d="M407.05,59.7h2a7.68,7.68,0,0,1,7.68,7.69v37.25h18.6V67.39A7.68,7.68,0,0,1,443,59.7h2a7.68,7.68,0,0,1,7.68,7.69v95a7.68,7.68,0,0,1-7.68,7.68h-2a7.68,7.68,0,0,1-7.68-7.68v-42h-18.6v42a7.68,7.68,0,0,1-7.68,7.68h-2a7.68,7.68,0,0,1-7.68-7.68v-95A7.68,7.68,0,0,1,407.05,59.7Z" transform="translate(-242.06 -59.11)"/>
  <path d="M473.91,59.7h31.94a7.68,7.68,0,0,1,7.68,7.69v.4a7.68,7.68,0,0,1-7.68,7.68H483.57v29.17H499.7a7.68,7.68,0,0,1,7.68,7.68v.4a7.68,7.68,0,0,1-7.68,7.69H483.57V154.3h22.28a7.68,7.68,0,0,1,7.68,7.69v.4a7.68,7.68,0,0,1-7.68,7.68H473.91a7.68,7.68,0,0,1-7.68-7.68v-95A7.68,7.68,0,0,1,473.91,59.7Z" transform="translate(-242.06 -59.11)"/>
  <path d="M539.23,113.63,523.78,70A7.69,7.69,0,0,1,531,59.7h1.86a7.69,7.69,0,0,1,7.3,5.3l10.09,30.81,10.38-30.87a7.68,7.68,0,0,1,7.28-5.24h0A7.69,7.69,0,0,1,575.18,70l-15.45,43.68,16.39,46.19a7.69,7.69,0,0,1-7.24,10.25H567a7.68,7.68,0,0,1-7.3-5.29l-11-33.65-11.32,33.7a7.68,7.68,0,0,1-7.28,5.24h0a7.68,7.68,0,0,1-7.24-10.25Z" transform="translate(-242.06 -59.11)"/>
</svg>
