<svg xmlns="http://www.w3.org/2000/svg" viewBox="0 0 45.98 50.65">
  <g>
    <path d="M233.52,82.33h-1v-3a1.68,1.68,0,0,0-3.36,0v3H216.88v-3a1.68,1.68,0,1,0-3.36,0v3h-1A12.52,12.52,0,0,0,200,94.83v21a12.52,12.52,0,0,0,12.51,12.51h21A12.52,12.52,0,0,0,246,115.8v-21A12.52,12.52,0,0,0,233.52,82.33Zm9.14,33.47a9.15,9.15,0,0,1-9.14,9.15h-21a9.16,9.16,0,0,1-9.15-9.15v-21a9.16,9.16,0,0,1,9.15-9.14h1v1.49a1.68,1.68,0,0,0,3.36,0V85.69h12.31v1.49a1.68,1.68,0,0,0,3.36,0V85.69h1a9.15,9.15,0,0,1,9.14,9.14Z" transform="translate(-200.04 -77.66)" style="fill: #383232"/>
    <path d="M238.51,95H207.56a1.68,1.68,0,0,0,0,3.36h30.95a1.68,1.68,0,1,0,0-3.36Z" transform="translate(-200.04 -77.66)" style="fill: #383232"/>
    <path d="M227.9,101.34h-9.73a1.69,1.69,0,0,0,0,3.38h7.22a39,39,0,0,0-6.33,13.46,1.7,1.7,0,0,0,1.65,2.1h.77a1.68,1.68,0,0,0,1.65-1.36,40.28,40.28,0,0,1,6.16-14.1,1.7,1.7,0,0,0,.3-.95V103A1.69,1.69,0,0,0,227.9,101.34Z" transform="translate(-200.04 -77.66)" style="fill: #383232"/>
  </g>
</svg>
