<svg xmlns="http://www.w3.org/2000/svg" viewBox="0 0 82.05 90.38">
  <g>
    <path d="M214.71,47.13H213V41.81a3,3,0,0,0-6,0v5.32H185V41.81a3,3,0,0,0-6,0v5.32h-1.73A22.35,22.35,0,0,0,155,69.45v37.42a22.34,22.34,0,0,0,22.32,22.32h37.42A22.34,22.34,0,0,0,237,106.87V69.45A22.35,22.35,0,0,0,214.71,47.13ZM231,106.87a16.34,16.34,0,0,1-16.32,16.32H177.29A16.34,16.34,0,0,1,161,106.87V69.45a16.34,16.34,0,0,1,16.32-16.32H179v2.66a3,3,0,0,0,6,0V53.13h22v2.66a3,3,0,0,0,6,0V53.13h1.73A16.34,16.34,0,0,1,231,69.45Z" transform="translate(-154.97 -38.81)" style="fill: #383232"/>
    <path d="M223.61,69.69H168.39a3,3,0,0,0,0,6h55.22a3,3,0,0,0,0-6Z" transform="translate(-154.97 -38.81)" style="fill: #383232"/>
    <path d="M204.68,81.06H187.32a3,3,0,1,0,0,6h12.89a69.4,69.4,0,0,0-11.3,24,3,3,0,0,0,2.94,3.74h1.38a3,3,0,0,0,3-2.42c1.71-8.81,6.26-18.25,11-25.15a3,3,0,0,0,.53-1.7v-1.5A3,3,0,0,0,204.68,81.06Z" transform="translate(-154.97 -38.81)" style="fill: #383232"/>
  </g>
</svg>
