<svg xmlns="http://www.w3.org/2000/svg" viewBox="0 0 45.98 45.98">
  <path d="M232.85,82.33h-21a12.52,12.52,0,0,0-12.51,12.5v21a12.52,12.52,0,0,0,12.51,12.51h21a12.52,12.52,0,0,0,12.51-12.51v-21A12.52,12.52,0,0,0,232.85,82.33Zm-17.76,33-4.44-7.85a1.08,1.08,0,0,1,0-1.06L216,97.15a1.08,1.08,0,0,1,.18-.24v7.46a2.72,2.72,0,0,0,1.35,2.35l3.48,2a2.71,2.71,0,0,0,2.71,0l3.45-2a2.69,2.69,0,0,0,1.34-2.33V97a1.67,1.67,0,0,1,.12.16l5.42,9.31a1.08,1.08,0,0,1,0,1.07l-4.35,7.56a1.69,1.69,0,0,0-.23.84v9H215.3v-8.77A1.71,1.71,0,0,0,215.09,115.35Zm26.9.45a9.15,9.15,0,0,1-9.12,9.15v-8.58l4.12-7.18a4.44,4.44,0,0,0,0-4.43l-5.43-9.31a4.45,4.45,0,0,0-3.82-2.2h-.88a1.69,1.69,0,0,0-1.68,1.69v9l-2.8,1.63L219.56,104V94.94a1.69,1.69,0,0,0-1.68-1.69h-.94a4.44,4.44,0,0,0-3.84,2.22l-5.36,9.29a4.46,4.46,0,0,0,0,4.39l4.22,7.47V125h-.06a9.15,9.15,0,0,1-9.14-9.15v-21a9.15,9.15,0,0,1,9.14-9.14h21A9.15,9.15,0,0,1,242,94.83Z" transform="translate(-199.37 -82.33)" style="fill: #383232"/>
</svg>
