<svg xmlns="http://www.w3.org/2000/svg" viewBox="0 0 45.35 45.35">
  <g>
    <path d="M233.37,82.64H212.69A12.35,12.35,0,0,0,200.36,95v20.68A12.35,12.35,0,0,0,212.69,128h20.68a12.35,12.35,0,0,0,12.34-12.34V95A12.35,12.35,0,0,0,233.37,82.64Zm9,33a9,9,0,0,1-9,9H212.69a9,9,0,0,1-9-9V95a9,9,0,0,1,9-9h20.68a9,9,0,0,1,9,9Z" transform="translate(-200.36 -82.64)" style="fill: #383232"/>
    <path d="M235.36,104.21h-1a1.66,1.66,0,0,0,0,3.32h1a1.66,1.66,0,0,0,0-3.32Z" transform="translate(-200.36 -82.64)" style="fill: #383232"/>
    <path d="M235.36,109.68h-1a1.66,1.66,0,0,0,0,3.31h1a1.66,1.66,0,1,0,0-3.31Z" transform="translate(-200.36 -82.64)" style="fill: #383232"/>
    <path d="M235.36,115.14h-1a1.66,1.66,0,0,0,0,3.32h1a1.66,1.66,0,0,0,0-3.32Z" transform="translate(-200.36 -82.64)" style="fill: #383232"/>
    <path d="M227.38,104.21h-1a1.66,1.66,0,0,0,0,3.32h1a1.66,1.66,0,0,0,0-3.32Z" transform="translate(-200.36 -82.64)" style="fill: #383232"/>
    <path d="M227.38,109.68h-1a1.66,1.66,0,1,0,0,3.31h1a1.66,1.66,0,1,0,0-3.31Z" transform="translate(-200.36 -82.64)" style="fill: #383232"/>
    <path d="M227.38,115.14h-1a1.66,1.66,0,1,0,0,3.32h1a1.66,1.66,0,0,0,0-3.32Z" transform="translate(-200.36 -82.64)" style="fill: #383232"/>
    <path d="M219.55,104.21h-1a1.66,1.66,0,0,0,0,3.32h1a1.66,1.66,0,0,0,0-3.32Z" transform="translate(-200.36 -82.64)" style="fill: #383232"/>
    <path d="M219.55,109.68h-1a1.66,1.66,0,0,0,0,3.31h1a1.66,1.66,0,1,0,0-3.31Z" transform="translate(-200.36 -82.64)" style="fill: #383232"/>
    <path d="M219.55,115.14h-1a1.66,1.66,0,0,0,0,3.32h1a1.66,1.66,0,0,0,0-3.32Z" transform="translate(-200.36 -82.64)" style="fill: #383232"/>
    <path d="M211.73,104.21h-1a1.66,1.66,0,0,0,0,3.32h1a1.66,1.66,0,0,0,0-3.32Z" transform="translate(-200.36 -82.64)" style="fill: #383232"/>
    <path d="M211.73,109.68h-1a1.66,1.66,0,1,0,0,3.31h1a1.66,1.66,0,1,0,0-3.31Z" transform="translate(-200.36 -82.64)" style="fill: #383232"/>
    <path d="M211.73,115.14h-1a1.66,1.66,0,0,0,0,3.32h1a1.66,1.66,0,0,0,0-3.32Z" transform="translate(-200.36 -82.64)" style="fill: #383232"/>
    <path d="M237.16,91.13H208.91a1.66,1.66,0,0,0-1.66,1.66v6.47a1.65,1.65,0,0,0,1.66,1.65h28.25a1.65,1.65,0,0,0,1.65-1.65V92.79A1.65,1.65,0,0,0,237.16,91.13ZM235.5,97.6H210.57V94.45H235.5Z" transform="translate(-200.36 -82.64)" style="fill: #383232"/>
  </g>
</svg>
