<svg xmlns="http://www.w3.org/2000/svg" viewBox="0 0 197.58 85">
  <g>
    <path d="M195.18,109.51V90.42a2.73,2.73,0,0,1,2.73-2.73H200a2.72,2.72,0,0,1,2.73,2.73V136a2.71,2.71,0,0,1-2.73,2.72h-2.12a2.72,2.72,0,0,1-2.73-2.72V117h-8.4v19a2.71,2.71,0,0,1-2.73,2.72h-2.12A2.72,2.72,0,0,1,179.2,136V90.42a2.73,2.73,0,0,1,2.73-2.73h2.12a2.72,2.72,0,0,1,2.73,2.73v19.09Z" transform="translate(-77.59 -84.66)" style="fill: #a3b696"/>
    <path d="M216.31,136a2.76,2.76,0,0,1-2.72,2.72h-2.12a2.71,2.71,0,0,1-2.73-2.72V90.42a2.72,2.72,0,0,1,2.73-2.73h2.12a2.76,2.76,0,0,1,2.72,2.73Z" transform="translate(-77.59 -84.66)" style="fill: #a3b696"/>
    <path d="M234.72,118.6l6.74-28.86a2.91,2.91,0,0,1,2.65-2.12h2.2A2.68,2.68,0,0,1,249,91l-10.76,45.6a2.89,2.89,0,0,1-2.65,2.12H234a2.76,2.76,0,0,1-2.65-2.12L220.55,91a2.62,2.62,0,0,1,2.66-3.33h2.12A3,3,0,0,1,228,89.74Z" transform="translate(-77.59 -84.66)" style="fill: #a3b696"/>
    <path d="M272.28,87.69A2.72,2.72,0,0,1,275,90.42v2a2.71,2.71,0,0,1-2.73,2.72H260.7v14.24h9.54a2.71,2.71,0,0,1,2.72,2.73v2a2.71,2.71,0,0,1-2.72,2.73H260.7v14.31h11.58A2.72,2.72,0,0,1,275,134V136a2.71,2.71,0,0,1-2.73,2.72H255.92A2.71,2.71,0,0,1,253.2,136V90.42a2.72,2.72,0,0,1,2.72-2.73Z" transform="translate(-77.59 -84.66)" style="fill: #a3b696"/>
  </g>
  <path d="M162.4,116.11a5.29,5.29,0,1,0,0-5.89h-6.54l-4-6.86h10.5a5.28,5.28,0,1,0,0-5.9H148.5l-4.17-7.21a5.68,5.68,0,0,0-9.85,0l-4.16,7.2h-8.26l2.45-4.26a5.69,5.69,0,0,0-4.93-8.53H96.43A5.73,5.73,0,0,0,91.5,87.5L78.34,110.3a5.7,5.7,0,0,0,0,5.69L91.5,138.78a5.73,5.73,0,0,0,4.93,2.84h23.15a5.69,5.69,0,0,0,4.93-8.53l-2.44-4.24h8.26l4.15,7.18a5.69,5.69,0,0,0,9.85,0l4.14-7.18H162.4a5.28,5.28,0,1,0,0-5.9H151.88l4-6.86Zm-35.49-12.76-4,6.85h-8.26l4-6.86ZM96.55,135.73l-13-22.59,13-22.59h22.68l-11.4,19.75a5.72,5.72,0,0,0,0,5.69l11.4,19.74ZM118.66,123l-4-6.86H123l4,6.86Zm20.74,9.82-11.33-19.64L139.4,93.5l11.34,19.64Z" transform="translate(-77.59 -84.66)" style="fill: #a3b696"/>
  <g>
    <path d="M215.87,145.52h9.45v2.41h-6.8V156H224v2.42h-5.48v10.87h-2.65Z" transform="translate(-77.59 -84.66)" style="fill: #a3b696"/>
    <path d="M229.51,145.52h2.65V166.9H239v2.41h-9.45Z" transform="translate(-77.59 -84.66)" style="fill: #a3b696"/>
    <path d="M242.66,163.77V151c0-3.77,1.94-5.84,5.44-5.84s5.48,2.07,5.48,5.84v12.75c0,3.78-1.94,5.88-5.48,5.88S242.66,167.55,242.66,163.77Zm8.26.17V150.85c0-2.24-1-3.26-2.82-3.26s-2.78,1-2.78,3.26v13.09c0,2.28,1,3.3,2.78,3.3S250.92,166.22,250.92,163.94Z" transform="translate(-77.59 -84.66)" style="fill: #a3b696"/>
    <path d="M257.56,145.52h2.58l2.38,20.12L265,145.52h3l2.48,20.12,2.38-20.12h2.35l-2.93,23.79h-3.4l-2.38-18.56-2.41,18.56h-3.57Z" transform="translate(-77.59 -84.66)" style="fill: #a3b696"/>
  </g>
</svg>
