<svg xmlns="http://www.w3.org/2000/svg" viewBox="0 0 45.98 45.98">
  <g>
    <path d="M233.34,82.33h-21a12.52,12.52,0,0,0-12.51,12.5v21a12.49,12.49,0,0,0,3,8.13,1.42,1.42,0,0,0,.12.13,12.47,12.47,0,0,0,9.38,4.25h21a12.52,12.52,0,0,0,12.5-12.51v-21A12.52,12.52,0,0,0,233.34,82.33Zm-30.12,12.5a9.16,9.16,0,0,1,9.15-9.14h21a9.15,9.15,0,0,1,9.14,9.14v21a9.63,9.63,0,0,1-.21,2,20.46,20.46,0,0,0-7.33-10.15l-1.38-1-1,1.39a11.91,11.91,0,0,1-19.43,0l-1-1.39-1.38,1a19.55,19.55,0,0,0-7.43,9.62,9.38,9.38,0,0,1-.12-1.42ZM233.34,125h-21a9.09,9.09,0,0,1-6.51-2.74c.16-4.31,2-7.82,5.64-10.91a15.27,15.27,0,0,0,22.69,0,17,17,0,0,1,5.62,10.94A9.13,9.13,0,0,1,233.34,125Z" transform="translate(-199.86 -82.33)" style="fill: #383232"/>
    <path d="M222.85,110.88a9.81,9.81,0,1,0-9.8-9.81A9.82,9.82,0,0,0,222.85,110.88Zm0-16.25a6.45,6.45,0,1,1-6.44,6.44A6.45,6.45,0,0,1,222.85,94.63Z" transform="translate(-199.86 -82.33)" style="fill: #383232"/>
  </g>
</svg>
