<svg xmlns="http://www.w3.org/2000/svg" viewBox="0 0 48.7 45.78">
  <g>
    <path d="M225.28,93.12H212.69a1.67,1.67,0,1,0,0,3.34h12.59a1.67,1.67,0,1,0,0-3.34Z" transform="translate(-196.73 -82.2)" style="fill: #383232"/>
    <path d="M221.43,100.22h-8.74a1.68,1.68,0,1,0,0,3.35h8.74a1.68,1.68,0,0,0,0-3.35Z" transform="translate(-196.73 -82.2)" style="fill: #383232"/>
    <path d="M239.66,84.16a12.52,12.52,0,0,0-6.68-2H212.11A12.48,12.48,0,0,0,200,91.76h-1.59a1.67,1.67,0,1,0,0,3.34h1.24v1.73h-1.24a1.67,1.67,0,1,0,0,3.34h1.24v1.73h-1.24a1.67,1.67,0,1,0,0,3.34h1.24V107h-1.24a1.67,1.67,0,1,0,0,3.34h1.24V112h-1.24a1.67,1.67,0,1,0,0,3.34h1.24v.15a11.75,11.75,0,0,0,.11,1.58h-1.35a1.67,1.67,0,1,0,0,3.34h2.26A12.46,12.46,0,0,0,212.11,128H233c.35,0,.69,0,1,0a13.12,13.12,0,0,0,3.35-.76,12.45,12.45,0,0,0,8.06-11.64V94.66a12.36,12.36,0,0,0-3.17-8.3Zm-3.55,43.41M233,124.64H212.11a9.11,9.11,0,0,1-7.65-4.19h.47a1.67,1.67,0,1,0,0-3.34h-1.78a9.19,9.19,0,0,1-.15-1.58v-.15h1.93a1.67,1.67,0,1,0,0-3.34H203v-1.73h1.93a1.67,1.67,0,1,0,0-3.34H203v-1.73h1.93a1.67,1.67,0,1,0,0-3.34H203v-1.73h1.93a1.67,1.67,0,1,0,0-3.34H203V95.1h1.93a1.67,1.67,0,1,0,0-3.34h-1.45a9.13,9.13,0,0,1,8.63-6.21H233a9.07,9.07,0,0,1,4.08,1l-.07.09c-.19.23-.38.46-.56.7l-.09.12c-.19.27-.36.54-.53.81l-.11.18c-.16.28-.32.57-.46.87h0c-.14.29-.27.6-.39.9,0,.07,0,.13-.07.2-.11.3-.21.6-.3.91a.94.94,0,0,1,0,.16c-.07.28-.14.57-.19.86a1.1,1.1,0,0,0,0,.16c-.06.32-.1.64-.14,1,0,.07,0,.14,0,.21,0,.33,0,.67,0,1v29.91A9.24,9.24,0,0,1,233,124.64Zm9.11-9.11a9.1,9.1,0,0,1-4.72,8V94.66c0-.32,0-.64,0-1,0-.1,0-.2,0-.3s.07-.43.11-.64.05-.22.08-.33.11-.39.17-.59.07-.21.11-.32a6.5,6.5,0,0,1,.25-.61c0-.08.07-.17.11-.25a7.19,7.19,0,0,1,.45-.81,1,1,0,0,1,.09-.13,7.07,7.07,0,0,1,.44-.63l.21-.25c.08-.1.17-.19.26-.29a9.08,9.08,0,0,1,2.35,6.1Z" transform="translate(-196.73 -82.2)" style="fill: #383232"/>
  </g>
</svg>
