<svg xmlns="http://www.w3.org/2000/svg" viewBox="0 0 46.14 54.82">
  <g>
    <path d="M233.55,82.17h-1v-7a1.69,1.69,0,0,0-3.38,0v7H216.86v-7a1.69,1.69,0,0,0-3.38,0v7h-1A12.56,12.56,0,0,0,200,94.72v21a12.56,12.56,0,0,0,12.55,12.55h21a12.56,12.56,0,0,0,12.55-12.55v-21A12.56,12.56,0,0,0,233.55,82.17Zm-4.35,3.38v2.26a3,3,0,0,1-3,3h-6.25a3,3,0,0,1-3-3V85.55Zm13.53,30.21a9.19,9.19,0,0,1-9.18,9.18h-21a9.18,9.18,0,0,1-9.17-9.18v-21a9.18,9.18,0,0,1,9.17-9.17h1v2.26a6.43,6.43,0,0,0,6.43,6.42h6.25a6.43,6.43,0,0,0,6.42-6.42V85.55h1a9.18,9.18,0,0,1,9.18,9.17Z" transform="translate(-199.96 -73.49)" style="fill: #383232"/>
    <path d="M230.65,101A1.68,1.68,0,0,0,229,99.3h-18.3a1.69,1.69,0,1,0,0,3.37H229A1.69,1.69,0,0,0,230.65,101Z" transform="translate(-199.96 -73.49)" style="fill: #383232"/>
    <path d="M226.77,108.14a1.69,1.69,0,0,0-1.69-1.68h-12.7a1.69,1.69,0,1,0,0,3.37h12.7A1.69,1.69,0,0,0,226.77,108.14Z" transform="translate(-199.96 -73.49)" style="fill: #383232"/>
    <path d="M235.18,113.39h-18.3a1.69,1.69,0,0,0,0,3.38h18.3a1.69,1.69,0,0,0,0-3.38Z" transform="translate(-199.96 -73.49)" style="fill: #383232"/>
  </g>
</svg>
