<svg xmlns="http://www.w3.org/2000/svg" viewBox="0 0 71.07 61.55">
  <path d="M180.52,152.53h19.53l17.77-30.77L200.05,91H164.52l-17.77,30.78,17.77,30.77h16m.39-51.52h1.41a4,4,0,0,1,2.86,2.71,4.58,4.58,0,0,1,.15,1c0,5.14,0,10.29,0,15.44a3.7,3.7,0,0,1-3.43,3.71,3.75,3.75,0,0,1-3.9-2.77,5.67,5.67,0,0,1-.13-1.49q0-7,0-13.94C177.86,102.94,178.45,102.05,180.91,101Zm19.4,25.39A19,19,0,0,1,186.71,142c-1.21.33-2.46.49-3.69.72H180.2a4.2,4.2,0,0,0-.59-.14,18.75,18.75,0,0,1-16.18-13.74c-.3-1.12-.48-2.28-.71-3.42v-3c.35-1.56.6-3.16,1.07-4.69a18.25,18.25,0,0,1,4.94-7.69,3.75,3.75,0,1,1,5.08,5.51,11.11,11.11,0,0,0-3.67,8.45,11.45,11.45,0,0,0,22.66,2.12,10.48,10.48,0,0,0-3-10.06,3.75,3.75,0,0,1-.22-5.37,3.86,3.86,0,0,1,5.72.19,18.11,18.11,0,0,1,5.08,11c0,.26.11.51.16.76V125C200.44,125.48,200.37,125.94,200.31,126.4Z" transform="translate(-146.75 -90.98)" style="fill: #f3b41b"/>
</svg>
