<svg xmlns="http://www.w3.org/2000/svg" viewBox="0 0 124.58 144.88">
  <rect width="124.58" height="144.88" style="fill: none"/>
  <g>
    <path d="M249.61,141.54l28.11,16.23a8.78,8.78,0,0,0,8.76,0l28.11-16.23a8.75,8.75,0,0,0,0-15.16l-28.11-16.23a8.78,8.78,0,0,0-8.76,0l-28.11,16.23a8.76,8.76,0,0,0,0,15.16Zm4.13-8,28.11-16.23a.5.5,0,0,1,.5,0l28.11,16.23a.5.5,0,0,1,0,.88l-28.11,16.23a.5.5,0,0,1-.5,0L253.74,134.4a.5.5,0,0,1,0-.88Z" transform="translate(-219.81 -105.49)"/>
    <path d="M326.34,146.14a8.69,8.69,0,0,0-8.76,0l-28.11,16.23A8.78,8.78,0,0,0,285.1,170v32.46A8.74,8.74,0,0,0,298.23,210l28.11-16.23a8.79,8.79,0,0,0,4.38-7.59V153.73A8.67,8.67,0,0,0,326.34,146.14Zm-3.87,40a.52.52,0,0,1-.25.44l-28.11,16.23a.46.46,0,0,1-.51,0,.46.46,0,0,1-.26-.44V170a.51.51,0,0,1,.26-.44l28.11-16.22a.43.43,0,0,1,.25-.08.55.55,0,0,1,.51.52Z" transform="translate(-219.81 -105.49)"/>
    <path d="M278,202.35l.59-32.45a8.77,8.77,0,0,0-4.24-7.67l-27.8-16.74a8.75,8.75,0,0,0-13.27,7.34l-.6,32.46A8.79,8.79,0,0,0,237,193l27.81,16.74A8.76,8.76,0,0,0,278,202.35Zm-8.25-.15a.45.45,0,0,1-.26.43.48.48,0,0,1-.51,0L241.2,185.88a.49.49,0,0,1-.24-.44l.59-32.46a.47.47,0,0,1,.26-.43.56.56,0,0,1,.26-.07.43.43,0,0,1,.25.08l27.81,16.74a.52.52,0,0,1,.25.44Z" transform="translate(-219.81 -105.49)"/>
    <path d="M282.1,211.5a7.55,7.55,0,1,0,7.54,7.54A7.55,7.55,0,0,0,282.1,211.5Z" transform="translate(-219.81 -105.49)"/>
    <path d="M331.83,126.42a7.54,7.54,0,1,0,7.55,7.54A7.55,7.55,0,0,0,331.83,126.42Z" transform="translate(-219.81 -105.49)"/>
    <path d="M239.91,134a7.55,7.55,0,1,0-7.54,7.54A7.55,7.55,0,0,0,239.91,134Z" transform="translate(-219.81 -105.49)"/>
  </g>
</svg>
