<svg xmlns="http://www.w3.org/2000/svg" viewBox="0 0 124.58 144.88">
  <g>
    <path d="M262.13,114.88a6.36,6.36,0,0,1-.64-.32l-12-6.94v10.72l12.67,7.31Z" transform="translate(-203.55 -60.89)" style="fill: none"/>
    <path d="M282.24,107.61l-12.05,7c-.2.12-.42.21-.63.31v10.78l12.67-7.31Z" transform="translate(-203.55 -60.89)" style="fill: none"/>
    <path d="M249.46,99l12.67,7.31,3.07,1.77a1.24,1.24,0,0,0,.65.17,1.32,1.32,0,0,0,.63-.17l3.09-1.78L282.24,99,286,96.87l3.72-2.14,7.07-4.08a1.28,1.28,0,0,0,0-2.21l-7.07-4.07-.44-.26L266.47,71a1.17,1.17,0,0,0-.63-.17,1.23,1.23,0,0,0-.64.17L242.44,84.11l-.4.23-7.11,4.1a1.24,1.24,0,0,0-.63,1.11,1.21,1.21,0,0,0,.63,1.09h0l7.1,4.09,3.72,2.15Z" transform="translate(-203.55 -60.89)" style="fill: none"/>
    <path d="M302.07,115.82a.56.56,0,0,0-.61,0l-11.8,6.81-3.72,2.15-3.71,2.15-12.37,7.13-.31.16a8.12,8.12,0,0,1-3.72.92,8,8,0,0,1-3.72-.93c-.09-.05-.2-.09-.29-.15l-12.37-7.14-3.72-2.14L242,122.63l-11.8-6.81a.55.55,0,0,0-.6,0,.56.56,0,0,0-.3.52v36.49a.6.6,0,0,0,.3.53l35.93,20.74a.59.59,0,0,0,.6,0l35.93-20.74a.6.6,0,0,0,.3-.53V116.34A.56.56,0,0,0,302.07,115.82Z" transform="translate(-203.55 -60.89)" style="fill: none"/>
    <path d="M305.79,109.38a7.93,7.93,0,0,0-8,0L289.67,114V103.32l10.79-6.23a8.71,8.71,0,0,0,0-15.09L270.19,64.53a8.72,8.72,0,0,0-8.7,0L231.21,82a8.72,8.72,0,0,0,0,15.09L242,103.33v10.72l-8.09-4.67a8,8,0,0,0-12.06,7v36.49a8.06,8.06,0,0,0,4,7l35.93,20.74a8,8,0,0,0,8,0l35.93-20.74a8.06,8.06,0,0,0,4-7V116.34A7.94,7.94,0,0,0,305.79,109.38Zm-56.33-1.76,12,6.94a6.36,6.36,0,0,0,.64.32v10.77l-12.67-7.31Zm20.1,7.25c.21-.1.43-.19.63-.31l12.05-7v10.73l-12.67,7.31ZM234.93,90.65h0a1.21,1.21,0,0,1-.63-1.09,1.24,1.24,0,0,1,.63-1.11l7.11-4.1.4-.23L265.2,71a1.23,1.23,0,0,1,.64-.17,1.17,1.17,0,0,1,.63.17l22.77,13.14.44.26,7.07,4.07a1.28,1.28,0,0,1,0,2.21l-7.07,4.08L286,96.87,282.24,99l-12.67,7.32-3.09,1.78a1.32,1.32,0,0,1-.63.17,1.24,1.24,0,0,1-.65-.17l-3.07-1.77L249.46,99l-3.71-2.15L242,94.74Zm67.44,62.18a.6.6,0,0,1-.3.53L266.14,174.1a.59.59,0,0,1-.6,0l-35.93-20.74a.6.6,0,0,1-.3-.53V116.34a.56.56,0,0,1,.3-.52.55.55,0,0,1,.6,0l11.8,6.81,3.72,2.15,3.72,2.14,12.37,7.14c.09.06.2.1.29.15a8,8,0,0,0,3.72.93,8.12,8.12,0,0,0,3.72-.92l.31-.16,12.37-7.13,3.71-2.15,3.72-2.15,11.8-6.81a.61.61,0,0,1,.91.52Z" transform="translate(-203.55 -60.89)"/>
  </g>
  <rect width="124.58" height="144.88" style="fill: none"/>
</svg>
