<svg xmlns="http://www.w3.org/2000/svg" viewBox="0 0 50.61 102.48">
  <path d="M556.22,476.13a20,20,0,0,1-13.71-34.45,3,3,0,0,1,4.15,4.39,13.92,13.92,0,1,0,19.68.55,3,3,0,1,1,4.38-4.14,19.94,19.94,0,0,1-14.5,33.65Z" transform="translate(-536.28 -373.64)" style="fill: #394427"/>
  <path d="M545.14,420a3,3,0,0,1-2.08-.83,19.95,19.95,0,0,1-.73-28.21c2-2.17,6.67-9.2,9.15-13l1.43-2.17c.73-1.09,1.42-2.11,3-2.15s2.34,1,3.13,2l1.59,2.13c2.7,3.63,7.72,10.39,9.89,12.45a19.95,19.95,0,0,1,.73,28.21,3,3,0,1,1-4.37-4.16,13.91,13.91,0,0,0-.52-19.68c-2.27-2.16-6.27-7.44-10.22-12.75-3.63,5.51-7.29,11-9.46,13.26a13.92,13.92,0,0,0,.51,19.68,3,3,0,0,1-2.07,5.21Z" transform="translate(-536.28 -373.64)" style="fill: #394427"/>
  <path d="M556.22,458.22a3,3,0,0,1-3-3V405.68a3,3,0,0,1,6,0v49.53A3,3,0,0,1,556.22,458.22Z" transform="translate(-536.28 -373.64)" style="fill: #394427"/>
  <path d="M567.81,433.46H545.52a3,3,0,0,1,0-6h22.29a3,3,0,1,1,0,6Z" transform="translate(-536.28 -373.64)" style="fill: #394427"/>
  <path d="M586.76,449.45h0c0-.35.08-.71.13-1.05A9.65,9.65,0,0,0,586.76,449.45Z" transform="translate(-536.28 -373.64)" style="fill: #394427"/>
</svg>
