<svg xmlns="http://www.w3.org/2000/svg" viewBox="0 0 124.58 144.88">
  <g>
    <path d="M343.79,219.18a1.47,1.47,0,0,0,1.45,0l12.9-7.44,8.47-4.89,13.1-7.56a1.45,1.45,0,0,0,0-2.51l-34.47-19.9a1.41,1.41,0,0,0-.72-.19,1.47,1.47,0,0,0-.73.19l-34.46,19.9a1.44,1.44,0,0,0,0,2.51l13.09,7.56,8.47,4.89Z" transform="translate(-282.72 -163.56)" style="fill: none"/>
    <path d="M344.52,255.24a9.94,9.94,0,0,1-5-1.33l-16.41-9.47-13.82,8a1.44,1.44,0,0,0,0,2.5l34.46,19.9a1.45,1.45,0,0,0,1.45,0l34.47-19.9a1.45,1.45,0,0,0,0-2.5l-13.83-8-16.41,9.47A9.93,9.93,0,0,1,344.52,255.24Z" transform="translate(-282.72 -163.56)" style="fill: none"/>
    <path d="M379.71,224.17l-13.1-7.56-16,9.24-1.15.66a10,10,0,0,1-9.91,0l-1.15-.66-16-9.24-13.09,7.56a1.43,1.43,0,0,0-.73,1.26,1.4,1.4,0,0,0,.73,1.25l13.82,8,8.46,4.89,12.18,7a1.45,1.45,0,0,0,1.45,0l12.18-7,8.46-4.89,13.83-8a1.41,1.41,0,0,0,.72-1.25A1.43,1.43,0,0,0,379.71,224.17Z" transform="translate(-282.72 -163.56)" style="fill: none"/>
    <path d="M388.9,225.43a9.84,9.84,0,0,0-5-8.59l-8.86-5.11,8.86-5.12a9.91,9.91,0,0,0,0-17.17l-34.47-19.9a9.91,9.91,0,0,0-9.91,0l-34.47,19.9a9.92,9.92,0,0,0,0,17.17l8.87,5.12-8.87,5.11a9.92,9.92,0,0,0,0,17.17l9.59,5.54-9.59,5.53a9.93,9.93,0,0,0,0,17.18l34.47,19.89a9.9,9.9,0,0,0,9.91,0l34.47-19.89a9.92,9.92,0,0,0,0-17.18l-9.59-5.53,9.59-5.54A9.82,9.82,0,0,0,388.9,225.43Zm-79.57-26.15a1.44,1.44,0,0,1,0-2.51l34.46-19.9a1.47,1.47,0,0,1,.73-.19,1.41,1.41,0,0,1,.72.19l34.47,19.9a1.45,1.45,0,0,1,0,2.51l-13.1,7.56-8.47,4.89-12.9,7.44a1.47,1.47,0,0,1-1.45,0l-12.9-7.45-8.47-4.89Zm70.38,53.14a1.45,1.45,0,0,1,0,2.5l-34.47,19.9a1.45,1.45,0,0,1-1.45,0l-34.46-19.9a1.44,1.44,0,0,1,0-2.5l13.82-8,16.41,9.47a9.9,9.9,0,0,0,9.91,0l16.41-9.47Zm0-25.74-13.83,8-8.46,4.89-12.18,7a1.45,1.45,0,0,1-1.45,0l-12.18-7-8.46-4.89-13.82-8a1.4,1.4,0,0,1-.73-1.25,1.43,1.43,0,0,1,.73-1.26l13.09-7.56,16,9.24,1.15.66a10,10,0,0,0,9.91,0l1.15-.66,16-9.24,13.1,7.56a1.43,1.43,0,0,1,.72,1.26A1.41,1.41,0,0,1,379.71,226.68Z" transform="translate(-282.72 -163.56)"/>
  </g>
  <rect width="124.58" height="144.88" style="fill: none"/>
</svg>
