<svg xmlns="http://www.w3.org/2000/svg" viewBox="0 0 124.58 144.88">
  <g>
    <path d="M343.79,219.18a1.47,1.47,0,0,0,1.45,0l12.9-7.44,8.47-4.89,13.1-7.56a1.45,1.45,0,0,0,0-2.51l-34.47-19.9a1.41,1.41,0,0,0-.72-.19,1.47,1.47,0,0,0-.73.19l-34.46,19.9a1.44,1.44,0,0,0,0,2.51l13.09,7.56,8.47,4.89Z" transform="translate(-282.72 -163.56)" style="fill: none"/>
    <path d="M344.52,255.24a9.94,9.94,0,0,1-5-1.33l-16.41-9.47-13.82,8a1.44,1.44,0,0,0,0,2.5l34.46,19.9a1.45,1.45,0,0,0,1.45,0l34.47-19.9a1.45,1.45,0,0,0,0-2.5l-13.83-8-16.41,9.47A9.93,9.93,0,0,1,344.52,255.24Z" transform="translate(-282.72 -163.56)" style="fill: none"/>
    <path d="M379.71,224.17l-13.1-7.56-16,9.24-1.15.66a10,10,0,0,1-9.91,0l-1.15-.66-16-9.24-13.09,7.56a1.43,1.43,0,0,0-.73,1.26,1.4,1.4,0,0,0,.73,1.25l13.82,8,8.46,4.89,12.18,7a1.45,1.45,0,0,0,1.45,0l12.18-7,8.46-4.89,13.83-8a1.41,1.41,0,0,0,.72-1.25A1.43,1.43,0,0,0,379.71,224.17Z" transform="translate(-282.72 -163.56)" style="fill: none"/>
    <path d="M388.9,225.43a9.84,9.84,0,0,0-5-8.59l-8.86-5.11,8.86-5.12a9.91,9.91,0,0,0,0-17.17l-34.47-19.9a9.91,9.91,0,0,0-9.91,0l-34.47,19.9a9.92,9.92,0,0,0,0,17.17l8.87,5.12-8.87,5.11a9.92,9.92,0,0,0,0,17.17l9.59,5.54-9.59,5.53a9.93,9.93,0,0,0,0,17.18l34.47,19.89a9.9,9.9,0,0,0,9.91,0l34.47-19.89a9.92,9.92,0,0,0,0-17.18l-9.59-5.53,9.59-5.54A9.82,9.82,0,0,0,388.9,225.43Zm-79.57-26.15a1.44,1.44,0,0,1,0-2.51l34.46-19.9a1.47,1.47,0,0,1,.73-.19,1.41,1.41,0,0,1,.72.19l34.47,19.9a1.45,1.45,0,0,1,0,2.51l-13.1,7.56-8.47,4.89-12.9,7.44a1.47,1.47,0,0,1-1.45,0l-12.9-7.45-8.47-4.89Zm70.38,53.14a1.45,1.45,0,0,1,0,2.5l-34.47,19.9a1.45,1.45,0,0,1-1.45,0l-34.46-19.9a1.44,1.44,0,0,1,0-2.5l13.82-8,16.41,9.47a9.9,9.9,0,0,0,9.91,0l16.41-9.47Zm0-25.74-13.83,8-8.46,4.89-12.18,7a1.45,1.45,0,0,1-1.45,0l-12.18-7-8.46-4.89-13.82-8a1.4,1.4,0,0,1-.73-1.25,1.43,1.43,0,0,1,.73-1.26l13.09-7.56,16,9.24,1.15.66a10,10,0,0,0,9.91,0l1.15-.66,16-9.24,13.1,7.56a1.43,1.43,0,0,1,.72,1.26A1.41,1.41,0,0,1,379.71,226.68Z" transform="translate(-282.72 -163.56)"/>
  </g>
  <rect width="124.58" height="144.88" style="fill: none"/>
  <g>
    <path d="M296.74,303.72h-4.58l-.74,4.22h-2.06l3.68-19.8h3l3.71,19.8h-2.23Zm-.34-1.92-2-11.15L292.5,301.8Z" transform="translate(-282.72 -163.56)" style="fill: #231f20"/>
    <path d="M304.55,303.33V288.14h2.2V303.5c0,1.86.82,2.71,2.29,2.71s2.3-.85,2.3-2.71V288.14h2.15v15.19c0,3.14-1.56,4.89-4.47,4.89S304.55,306.47,304.55,303.33Z" transform="translate(-282.72 -163.56)" style="fill: #231f20"/>
    <path d="M321.91,290.15h-3.5v-2h9.22v2h-3.51v17.79h-2.21Z" transform="translate(-282.72 -163.56)" style="fill: #231f20"/>
    <path d="M332.27,303.33V292.72c0-3.14,1.61-4.86,4.52-4.86s4.56,1.72,4.56,4.86v10.61c0,3.14-1.62,4.89-4.56,4.89S332.27,306.47,332.27,303.33Zm6.87.14V292.58c0-1.87-.85-2.72-2.35-2.72s-2.32.85-2.32,2.72v10.89c0,1.89.85,2.74,2.32,2.74S339.14,305.36,339.14,303.47Z" transform="translate(-282.72 -163.56)" style="fill: #231f20"/>
    <path d="M347,288.14h3.2L353.14,304,356,288.14h3.22v19.8h-2.12V291.42L354,307.94h-1.87L349,291.42v16.52h-2Z" transform="translate(-282.72 -163.56)" style="fill: #231f20"/>
    <path d="M371.67,303.72h-4.58l-.74,4.22h-2.06l3.68-19.8h3l3.71,19.8h-2.23Zm-.34-1.92-2-11.15-1.92,11.15Z" transform="translate(-282.72 -163.56)" style="fill: #231f20"/>
    <path d="M380.81,290.15H377.3v-2h9.22v2H383v17.79h-2.2Z" transform="translate(-282.72 -163.56)" style="fill: #231f20"/>
    <path d="M391.56,288.14h8.12v2h-5.92v6.45h4.81v2h-4.81v7.33h5.92v2h-8.12Z" transform="translate(-282.72 -163.56)" style="fill: #231f20"/>
  </g>
</svg>
