<svg xmlns="http://www.w3.org/2000/svg" viewBox="0 0 124.58 144.97">
  <rect width="124.58" height="144.88" style="fill: none"/>
  <g>
    <path d="M249.61,141.54l28.11,16.23a8.78,8.78,0,0,0,8.76,0l28.11-16.23a8.75,8.75,0,0,0,0-15.16l-28.11-16.23a8.78,8.78,0,0,0-8.76,0l-28.11,16.23a8.76,8.76,0,0,0,0,15.16Zm4.13-8,28.11-16.23a.5.5,0,0,1,.5,0l28.11,16.23a.5.5,0,0,1,0,.88l-28.11,16.23a.5.5,0,0,1-.5,0L253.74,134.4a.5.5,0,0,1,0-.88Z" transform="translate(-219.81 -105.49)"/>
    <path d="M326.34,146.14a8.69,8.69,0,0,0-8.76,0l-28.11,16.23A8.78,8.78,0,0,0,285.1,170v32.46A8.74,8.74,0,0,0,298.23,210l28.11-16.23a8.79,8.79,0,0,0,4.38-7.59V153.73A8.67,8.67,0,0,0,326.34,146.14Zm-3.87,40a.52.52,0,0,1-.25.44l-28.11,16.23a.46.46,0,0,1-.51,0,.46.46,0,0,1-.26-.44V170a.51.51,0,0,1,.26-.44l28.11-16.22a.43.43,0,0,1,.25-.08.55.55,0,0,1,.51.52Z" transform="translate(-219.81 -105.49)"/>
    <path d="M278,202.35l.59-32.45a8.77,8.77,0,0,0-4.24-7.67l-27.8-16.74a8.75,8.75,0,0,0-13.27,7.34l-.6,32.46A8.79,8.79,0,0,0,237,193l27.81,16.74A8.76,8.76,0,0,0,278,202.35Zm-8.25-.15a.45.45,0,0,1-.26.43.48.48,0,0,1-.51,0L241.2,185.88a.49.49,0,0,1-.24-.44l.59-32.46a.47.47,0,0,1,.26-.43.56.56,0,0,1,.26-.07.43.43,0,0,1,.25.08l27.81,16.74a.52.52,0,0,1,.25.44Z" transform="translate(-219.81 -105.49)"/>
    <path d="M282.1,211.5a7.55,7.55,0,1,0,7.54,7.54A7.55,7.55,0,0,0,282.1,211.5Z" transform="translate(-219.81 -105.49)"/>
    <path d="M331.83,126.42a7.54,7.54,0,1,0,7.55,7.54A7.55,7.55,0,0,0,331.83,126.42Z" transform="translate(-219.81 -105.49)"/>
    <path d="M239.91,134a7.55,7.55,0,1,0-7.54,7.54A7.55,7.55,0,0,0,239.91,134Z" transform="translate(-219.81 -105.49)"/>
  </g>
  <g>
    <path d="M230.15,245.73V234.81c0-3,1.59-4.72,4.41-4.72s4.42,1.75,4.42,4.72v2h-2.1v-2.18c0-1.7-.87-2.57-2.26-2.57s-2.26.87-2.26,2.57v11.2c0,1.7.88,2.58,2.26,2.58s2.26-.88,2.26-2.58V243.1H239v2.63c0,2.94-1.56,4.73-4.42,4.73S230.15,248.67,230.15,245.73Z" transform="translate(-219.81 -105.49)" style="fill: #231f20"/>
    <path d="M244.24,245.56V235c0-3.14,1.61-4.87,4.52-4.87s4.56,1.73,4.56,4.87v10.6c0,3.14-1.61,4.9-4.56,4.9S244.24,248.7,244.24,245.56Zm6.87.14V234.81c0-1.86-.85-2.71-2.35-2.71s-2.31.85-2.31,2.71V245.7c0,1.9.84,2.75,2.31,2.75S251.11,247.6,251.11,245.7Z" transform="translate(-219.81 -105.49)" style="fill: #231f20"/>
    <path d="M259,230.37h3.2l2.91,15.81L268,230.37h3.22v19.8H269.1V233.65L266,250.17H264.1L261,233.65v16.52h-2Z" transform="translate(-219.81 -105.49)" style="fill: #231f20"/>
    <path d="M277.13,230.37h3.2l2.92,15.81,2.88-15.81h3.22v19.8h-2.12V233.65l-3.14,16.52h-1.86l-3.14-16.52v16.52h-2Z" transform="translate(-219.81 -105.49)" style="fill: #231f20"/>
    <path d="M301.77,246h-4.58l-.74,4.21h-2.06l3.68-19.8h3l3.7,19.8h-2.23Zm-.34-1.92-2-11.15L297.53,244Z" transform="translate(-219.81 -105.49)" style="fill: #231f20"/>
    <path d="M309.81,230.37h2.82l4.47,14.15V230.37h2v19.8h-2.29l-5-16.09v16.09h-2Z" transform="translate(-219.81 -105.49)" style="fill: #231f20"/>
    <path d="M325.05,230.37h4.53c3.05,0,4.47,1.62,4.47,4.81v10.18c0,3.2-1.42,4.81-4.47,4.81h-4.53Zm4.47,17.79c1.56,0,2.32-.76,2.32-2.71V235.07c0-1.95-.76-2.69-2.32-2.69h-2.26v15.78Z" transform="translate(-219.81 -105.49)" style="fill: #231f20"/>
  </g>
</svg>
