<svg xmlns="http://www.w3.org/2000/svg" viewBox="0 0 124.58 144.88">
  <path d="M400,293.43c-24.79-.67-48.17-.67-75.79,0a12.69,12.69,0,0,0-3.22.28v40.82a.68.68,0,0,0,.34.59l40.44,23.34a.69.69,0,0,0,.68,0l40.44-23.34a.68.68,0,0,0,.34-.59V293.68a12.94,12.94,0,0,0-3.12-.25Z" transform="translate(-300.2 -252.33)" style="fill: none"/>
  <path d="M400.13,285.06c-7.8-.21-15.46-.35-23.15-.43v-9.29a10,10,0,0,0-10-10H330.28a10,10,0,0,0-10,10v10c-6.28,1.06-7.74,4.84-7.74,8.11v41.07a9.1,9.1,0,0,0,4.53,7.84l40.43,23.34a9.07,9.07,0,0,0,9,0L407,342.37a9.1,9.1,0,0,0,4.53-7.84V293.46C411.56,289.63,409.57,285.08,400.13,285.06Zm-71.44-9.72a1.59,1.59,0,0,1,1.59-1.59H367a1.59,1.59,0,0,1,1.58,1.59v9.06H328.69Zm74.5,59.19a.68.68,0,0,1-.34.59l-40.44,23.34a.69.69,0,0,1-.68,0l-40.44-23.34a.68.68,0,0,1-.34-.59V293.71a12.69,12.69,0,0,1,3.22-.28c27.62-.67,51-.67,75.79,0h.11a12.94,12.94,0,0,1,3.12.25Z" transform="translate(-300.2 -252.33)"/>
  <rect width="124.58" height="144.88" style="fill: none"/>
</svg>
