<svg xmlns="http://www.w3.org/2000/svg" viewBox="0 0 124.58 144.97">
  <g>
    <path d="M335,178c-24.79-.66-48.17-.66-75.79,0a12,12,0,0,0-3.22.29v40.81a.67.67,0,0,0,.34.59l40.44,23.35a.69.69,0,0,0,.68,0l40.44-23.35a.67.67,0,0,0,.34-.59V178.3a12.71,12.71,0,0,0-3.12-.26Z" transform="translate(-235.19 -136.95)" style="fill: none"/>
    <path d="M335.12,169.67c-7.8-.21-15.46-.35-23.15-.43V160A10,10,0,0,0,302,150H265.27a10,10,0,0,0-9.95,9.95v10c-6.29,1.06-7.75,4.84-7.75,8.1v41.07A9.08,9.08,0,0,0,252.1,227l40.43,23.35a9.08,9.08,0,0,0,9.06,0L342,227a9.08,9.08,0,0,0,4.53-7.84V178.07C346.55,174.25,344.56,169.69,335.12,169.67ZM263.69,160a1.58,1.58,0,0,1,1.58-1.58H302A1.58,1.58,0,0,1,303.6,160V169H263.69Zm74.49,59.19a.67.67,0,0,1-.34.59L297.4,243.08a.69.69,0,0,1-.68,0l-40.44-23.35a.67.67,0,0,1-.34-.59V178.33a12,12,0,0,1,3.22-.29c27.62-.66,51-.66,75.79,0h.11a12.71,12.71,0,0,1,3.12.26Z" transform="translate(-235.19 -136.95)"/>
    <path d="M303.6,160a1.58,1.58,0,0,0-1.58-1.58H265.27a1.58,1.58,0,0,0-1.58,1.58V169H303.6Z" transform="translate(-235.19 -136.95)" style="fill: #fff"/>
  </g>
  <rect width="124.58" height="144.88" style="fill: none"/>
  <g>
    <path d="M269.67,261.83h7.87v2h-5.66v6.73h4.55v2h-4.55v9.05h-2.21Z" transform="translate(-235.19 -136.95)" style="fill: #231f20"/>
    <path d="M282.57,261.83h2.21v19.8h-2.21Z" transform="translate(-235.19 -136.95)" style="fill: #231f20"/>
    <path d="M290.69,261.83h2.21v17.79h5.65v2h-7.86Z" transform="translate(-235.19 -136.95)" style="fill: #231f20"/>
    <path d="M303.59,261.83h8.12v2h-5.92v6.45h4.81v2h-4.81v7.33h5.92v2h-8.12Z" transform="translate(-235.19 -136.95)" style="fill: #231f20"/>
    <path d="M316.37,277.1V276h2.1v1.27c0,1.78.87,2.63,2.29,2.63s2.32-.85,2.32-2.66-.77-3-3.06-4.89c-2.74-2.26-3.65-3.85-3.65-6.08,0-3,1.59-4.72,4.44-4.72s4.36,1.75,4.36,4.78v.79h-2.09v-.93c0-1.79-.82-2.64-2.27-2.64s-2.26.85-2.26,2.58.79,2.77,3.14,4.69c2.72,2.27,3.59,3.85,3.59,6.26,0,3.08-1.61,4.83-4.49,4.83S316.37,280.16,316.37,277.1Z" transform="translate(-235.19 -136.95)" style="fill: #231f20"/>
  </g>
</svg>
