<svg xmlns="http://www.w3.org/2000/svg" viewBox="0 0 124.58 144.88">
  <g>
    <path d="M409.49,102.73,407,98.45l-2.47-4.28-8.21-14.23a.73.73,0,0,0-.61-.35h-42a.7.7,0,0,0-.61,1l7.8,13.51,2.47,4.28,2.47,4.28L374.13,117c.05.09.08.19.13.28a9.11,9.11,0,0,1,1.1,4.28,9.22,9.22,0,0,1-1,4.28c-.07.14-.13.28-.2.41L366,140.44l-2.47,4.28L361,149l-7.89,13.65a.7.7,0,0,0,.61,1h42a.71.71,0,0,0,.61-.35L404.61,149l2.47-4.28,2.47-4.28L420.21,122a.66.66,0,0,0,0-.69Z" transform="translate(-308.59 -59.36)" style="fill: none"/>
    <path d="M427.63,117,403.75,75.66a9.3,9.3,0,0,0-8-4.63h-42a9.26,9.26,0,0,0-8,13.89L351,94.14H332.3a8.51,8.51,0,1,0,0,8.56H356l8.42,14.59-32.1,0a8.52,8.52,0,1,0,0,8.56l32.19,0-8.42,14.58H332.3a8.51,8.51,0,1,0,0,8.56h18.83l-5.42,9.38a9.26,9.26,0,0,0,8,13.89h42a9.28,9.28,0,0,0,8-4.63l23.88-41.36A9.31,9.31,0,0,0,427.63,117Zm-7.42,5-10.66,18.47-2.47,4.28L404.61,149l-8.27,14.33a.71.71,0,0,1-.61.35h-42a.7.7,0,0,1-.61-1L361,149l2.47-4.28,2.47-4.28,8.18-14.17c.07-.13.13-.27.2-.41a9.22,9.22,0,0,0,1-4.28,9.11,9.11,0,0,0-1.1-4.28c-.05-.09-.08-.19-.13-.28l-8.27-14.31-2.47-4.28-2.47-4.28-7.8-13.51a.7.7,0,0,1,.61-1h42a.73.73,0,0,1,.61.35l8.21,14.23L407,98.45l2.47,4.28,10.72,18.57A.66.66,0,0,1,420.21,122Z" transform="translate(-308.59 -59.36)"/>
  </g>
  <rect width="124.58" height="144.88" style="fill: none"/>
</svg>
