<svg xmlns="http://www.w3.org/2000/svg" viewBox="0 0 124.58 144.97">
  <g>
    <path d="M409.49,102.73,407,98.45l-2.47-4.28-8.21-14.23a.73.73,0,0,0-.61-.35h-42a.7.7,0,0,0-.61,1l7.8,13.51,2.47,4.28,2.47,4.28L374.13,117c.05.09.08.19.13.28a9.11,9.11,0,0,1,1.1,4.28,9.22,9.22,0,0,1-1,4.28c-.07.14-.13.28-.2.41L366,140.44l-2.47,4.28L361,149l-7.89,13.65a.7.7,0,0,0,.61,1h42a.71.71,0,0,0,.61-.35L404.61,149l2.47-4.28,2.47-4.28L420.21,122a.66.66,0,0,0,0-.69Z" transform="translate(-308.59 -59.36)" style="fill: none"/>
    <path d="M427.63,117,403.75,75.66a9.3,9.3,0,0,0-8-4.63h-42a9.26,9.26,0,0,0-8,13.89L351,94.14H332.3a8.51,8.51,0,1,0,0,8.56H356l8.42,14.59-32.1,0a8.52,8.52,0,1,0,0,8.56l32.19,0-8.42,14.58H332.3a8.51,8.51,0,1,0,0,8.56h18.83l-5.42,9.38a9.26,9.26,0,0,0,8,13.89h42a9.28,9.28,0,0,0,8-4.63l23.88-41.36A9.31,9.31,0,0,0,427.63,117Zm-7.42,5-10.66,18.47-2.47,4.28L404.61,149l-8.27,14.33a.71.71,0,0,1-.61.35h-42a.7.7,0,0,1-.61-1L361,149l2.47-4.28,2.47-4.28,8.18-14.17c.07-.13.13-.27.2-.41a9.22,9.22,0,0,0,1-4.28,9.11,9.11,0,0,0-1.1-4.28c-.05-.09-.08-.19-.13-.28l-8.27-14.31-2.47-4.28-2.47-4.28-7.8-13.51a.7.7,0,0,1,.61-1h42a.73.73,0,0,1,.61.35l8.21,14.23L407,98.45l2.47,4.28,10.72,18.57A.66.66,0,0,1,420.21,122Z" transform="translate(-308.59 -59.36)"/>
  </g>
  <rect width="124.58" height="144.88" style="fill: none"/>
  <g>
    <path d="M343.88,184.24h7.86v2h-5.66V193h4.56v2h-4.56v9h-2.2Z" transform="translate(-308.59 -59.36)" style="fill: #231f20"/>
    <path d="M356.78,184.24H359V202h5.66v2h-7.86Z" transform="translate(-308.59 -59.36)" style="fill: #231f20"/>
    <path d="M369.28,199.43V188.82c0-3.14,1.61-4.87,4.52-4.87s4.56,1.73,4.56,4.87v10.61c0,3.14-1.61,4.89-4.56,4.89S369.28,202.57,369.28,199.43Zm6.87.14V188.68c0-1.87-.85-2.72-2.35-2.72s-2.32.85-2.32,2.72v10.89c0,1.89.85,2.74,2.32,2.74S376.15,201.46,376.15,199.57Z" transform="translate(-308.59 -59.36)" style="fill: #231f20"/>
    <path d="M383.22,184.24h2.15l2,16.74,2-16.74h2.49L393.94,201l2-16.74h2L395.44,204h-2.82l-2-15.45-2,15.45h-3Z" transform="translate(-308.59 -59.36)" style="fill: #231f20"/>
  </g>
</svg>
