<svg xmlns="http://www.w3.org/2000/svg" viewBox="0 0 124.58 144.88">
  <g>
    <path d="M234.25,276.83a4,4,0,0,1-3.59-5.76,81.81,81.81,0,0,0,8-25.33l-5.54-3.2a9.15,9.15,0,0,1-4.56-7.9V190.56a9.18,9.18,0,0,1,4.56-7.91l38.18-22a9.16,9.16,0,0,1,9.12,0l38.18,22h0a9.18,9.18,0,0,1,4.56,7.91v44.08a9.15,9.15,0,0,1-4.56,7.9l-38.18,22a9.13,9.13,0,0,1-9.13,0L264,260.39C251,268,236.36,276.23,236.21,276.32A4.07,4.07,0,0,1,234.25,276.83Zm41.56-109.44a1.09,1.09,0,0,0-.56.15l-38.18,22a1.13,1.13,0,0,0-.56,1v44.08a1.11,1.11,0,0,0,.56,1l7.77,4.49a4,4,0,0,1,2,3.75,78.54,78.54,0,0,1-4.37,19.73c5.68-3.25,12.92-7.41,19.47-11.27a4,4,0,0,1,4,0l9.29,5.36a1.12,1.12,0,0,0,1.12,0l38.18-22a1.13,1.13,0,0,0,.56-1V190.56a1.15,1.15,0,0,0-.56-1l-38.18-22A1.12,1.12,0,0,0,275.81,167.39Z" transform="translate(-213.52 -155.82)"/>
    <g>
      <path d="M252.24,203.37a8,8,0,1,0,8,8A8,8,0,0,0,252.24,203.37Z" transform="translate(-213.52 -155.82)"/>
      <path d="M275.45,203.37a8,8,0,1,0,8,8A8,8,0,0,0,275.45,203.37Z" transform="translate(-213.52 -155.82)"/>
      <path d="M298.65,203.37a8,8,0,1,0,8,8A8,8,0,0,0,298.65,203.37Z" transform="translate(-213.52 -155.82)"/>
    </g>
  </g>
  <rect width="124.58" height="144.88" style="fill: none"/>
</svg>
