<svg xmlns="http://www.w3.org/2000/svg" viewBox="0 0 124.58 144.97">
  <g>
    <path d="M234.25,276.83a4,4,0,0,1-3.59-5.76,81.81,81.81,0,0,0,8-25.33l-5.54-3.2a9.15,9.15,0,0,1-4.56-7.9V190.56a9.18,9.18,0,0,1,4.56-7.91l38.18-22a9.16,9.16,0,0,1,9.12,0l38.18,22h0a9.18,9.18,0,0,1,4.56,7.91v44.08a9.15,9.15,0,0,1-4.56,7.9l-38.18,22a9.13,9.13,0,0,1-9.13,0L264,260.39C251,268,236.36,276.23,236.21,276.32A4.07,4.07,0,0,1,234.25,276.83Zm41.56-109.44a1.09,1.09,0,0,0-.56.15l-38.18,22a1.13,1.13,0,0,0-.56,1v44.08a1.11,1.11,0,0,0,.56,1l7.77,4.49a4,4,0,0,1,2,3.75,78.54,78.54,0,0,1-4.37,19.73c5.68-3.25,12.92-7.41,19.47-11.27a4,4,0,0,1,4,0l9.29,5.36a1.12,1.12,0,0,0,1.12,0l38.18-22a1.13,1.13,0,0,0,.56-1V190.56a1.15,1.15,0,0,0-.56-1l-38.18-22A1.12,1.12,0,0,0,275.81,167.39Z" transform="translate(-213.52 -155.82)"/>
    <g>
      <path d="M252.24,203.37a8,8,0,1,0,8,8A8,8,0,0,0,252.24,203.37Z" transform="translate(-213.52 -155.82)"/>
      <path d="M275.45,203.37a8,8,0,1,0,8,8A8,8,0,0,0,275.45,203.37Z" transform="translate(-213.52 -155.82)"/>
      <path d="M298.65,203.37a8,8,0,1,0,8,8A8,8,0,0,0,298.65,203.37Z" transform="translate(-213.52 -155.82)"/>
    </g>
  </g>
  <rect width="124.58" height="144.88" style="fill: none"/>
  <g>
    <path d="M228,280.7h3.2l2.91,15.81L237,280.7h3.22v19.8h-2.12V284L235,300.5h-1.87L230,284V300.5h-2Z" transform="translate(-213.52 -155.82)" style="fill: #231f20"/>
    <path d="M246.16,280.7h8.12v2h-5.91v6.45h4.81v2h-4.81v7.32h5.91v2h-8.12Z" transform="translate(-213.52 -155.82)" style="fill: #231f20"/>
    <path d="M259,296v-1.11H261v1.28c0,1.78.88,2.63,2.29,2.63s2.32-.85,2.32-2.66-.76-3-3-4.89c-2.75-2.27-3.65-3.85-3.65-6.09,0-3,1.58-4.72,4.44-4.72s4.36,1.75,4.36,4.78V286h-2.1v-.93c0-1.78-.82-2.63-2.26-2.63s-2.26.85-2.26,2.57.79,2.77,3.14,4.7c2.71,2.26,3.59,3.85,3.59,6.25,0,3.08-1.61,4.84-4.5,4.84S259,299,259,296Z" transform="translate(-213.52 -155.82)" style="fill: #231f20"/>
    <path d="M272.58,296v-1.11h2.1v1.28c0,1.78.87,2.63,2.29,2.63s2.32-.85,2.32-2.66-.77-3-3.06-4.89c-2.74-2.27-3.65-3.85-3.65-6.09,0-3,1.59-4.72,4.44-4.72s4.36,1.75,4.36,4.78V286h-2.09v-.93c0-1.78-.82-2.63-2.27-2.63s-2.26.85-2.26,2.57.79,2.77,3.14,4.7c2.72,2.26,3.59,3.85,3.59,6.25,0,3.08-1.61,4.84-4.49,4.84S272.58,299,272.58,296Z" transform="translate(-213.52 -155.82)" style="fill: #231f20"/>
    <path d="M293.18,296.29h-4.59l-.73,4.21h-2.07l3.68-19.8h3l3.71,19.8h-2.24Zm-.34-1.92-2-11.15-1.93,11.15Z" transform="translate(-213.52 -155.82)" style="fill: #231f20"/>
    <path d="M300.9,295.89v-10.6c0-3.14,1.55-4.87,4.47-4.87s4.5,1.73,4.5,4.87v1.61h-2.1v-1.76c0-1.86-.85-2.71-2.35-2.71s-2.32.85-2.32,2.71v10.92c0,1.9.85,2.72,2.32,2.72s2.35-.82,2.35-2.72v-4.44h-2.18v-2h4.28v6.28c0,3.14-1.56,4.9-4.5,4.9S300.9,299,300.9,295.89Z" transform="translate(-213.52 -155.82)" style="fill: #231f20"/>
    <path d="M315.47,280.7h8.11v2h-5.91v6.45h4.81v2h-4.81v7.32h5.91v2h-8.11Z" transform="translate(-213.52 -155.82)" style="fill: #231f20"/>
  </g>
</svg>
