<svg xmlns="http://www.w3.org/2000/svg" xmlns:xlink="http://www.w3.org/1999/xlink" viewBox="0 0 63.85 35.96">
  <defs>
    <linearGradient id="a" x1="244.12" y1="240.3" x2="307.97" y2="240.3" gradientUnits="userSpaceOnUse">
      <stop offset="0" stop-color="#f57f20"/>
      <stop offset="0.49" stop-color="#fdb714"/>
      <stop offset="1" stop-color="#f57f20"/>
    </linearGradient>
    <linearGradient id="b" x1="262.04" y1="240.2" x2="289.69" y2="240.2" xlink:href="#a"/>
    <linearGradient id="c" x1="262.04" y1="240.2" x2="289.69" y2="240.2" xlink:href="#a"/>
    <linearGradient id="d" x1="247.69" y1="240.2" x2="295.51" y2="240.2" xlink:href="#a"/>
  </defs>
  <path d="M307,235.05v10.18a1.36,1.36,0,0,1-1.37,1.36H291.32A1.36,1.36,0,0,0,290,248v8a1.36,1.36,0,0,1-1.36,1.36H263a1.36,1.36,0,0,1-1.36-1.36v-8a1.36,1.36,0,0,0-1.36-1.36H246.48a1.36,1.36,0,0,1-1.36-1.36V235.05a1.36,1.36,0,0,1,1.36-1.37h13.81a1.36,1.36,0,0,0,1.36-1.36v-7.63a1.36,1.36,0,0,1,1.36-1.37H288.6a1.36,1.36,0,0,1,1.36,1.37v7.63a1.36,1.36,0,0,0,1.36,1.36H305.6A1.37,1.37,0,0,1,307,235.05Z" transform="translate(-244.12 -222.32)" style="fill: none;stroke-miterlimit: 10;stroke-width: 2px;stroke: url(#a)"/>
  <path d="M271.41,238.13,263,234.19v12l8.45-3.94a4.82,4.82,0,0,1,0-4.15Z" transform="translate(-244.12 -222.32)" style="fill: none;stroke-linecap: round;stroke-linejoin: round;stroke-width: 1.8240909576416016px;stroke: url(#b)"/>
  <path d="M288.78,234.19l-8.46,3.94a4.82,4.82,0,0,1,0,4.15l8.46,3.94Z" transform="translate(-244.12 -222.32)" style="fill: none;stroke-linecap: round;stroke-linejoin: round;stroke-width: 1.8240909576416016px;stroke: url(#c)"/>
  <path d="M271.41,242.28a4.91,4.91,0,0,0,8.91,0,4.82,4.82,0,0,0,0-4.15,4.91,4.91,0,1,0-8.91,4.15Z" transform="translate(-244.12 -222.32)" style="fill: none;stroke-linecap: round;stroke-linejoin: round;stroke-width: 1.8240909576416016px;stroke: url(#d)"/>
</svg>
