<svg xmlns="http://www.w3.org/2000/svg" xmlns:xlink="http://www.w3.org/1999/xlink" viewBox="0 0 31.64 67">
  <defs>
    <linearGradient id="a" x1="1081.83" y1="-67.12" x2="1086.18" y2="-67.12" gradientTransform="translate(-74.3 995.37) rotate(-45)" gradientUnits="userSpaceOnUse">
      <stop offset="0" stop-color="#f57f20"/>
      <stop offset="0.49" stop-color="#fdb714"/>
      <stop offset="1" stop-color="#f57f20"/>
    </linearGradient>
    <linearGradient id="b" x1="632.44" y1="198.42" x2="664.09" y2="198.42" gradientTransform="matrix(1, 0, 0, 1, 0, 0)" xlink:href="#a"/>
    <linearGradient id="c" x1="10.59" y1="52.58" x2="20.21" y2="52.58" gradientTransform="matrix(1, 0, 0, 1, 0, 0)" xlink:href="#a"/>
  </defs>
  <path d="M649.61,185.81l-.46.45a1.85,1.85,0,0,1-2.73-.12l-6.34-8.87a.39.39,0,0,1,.54-.54l8.86,6.33A1.87,1.87,0,0,1,649.61,185.81Z" transform="translate(-632.44 -164.92)" style="fill: url(#a)"/>
  <path d="M659.55,203.78h-9.5v-4.22a14.82,14.82,0,0,0,1.25-29.22,2.09,2.09,0,0,0,0-.35v-1.83a2.24,2.24,0,0,0-2.24-2.24h-1.84a2.24,2.24,0,0,0-2.24,2.24V170a2.58,2.58,0,0,0,0,.39,14.82,14.82,0,0,0,1.42,29.18v4.22h-9.25a2.41,2.41,0,0,0-2.41,2.41v22.32a2.41,2.41,0,0,0,2.41,2.41h22.32a2.41,2.41,0,0,0,2.41-2.41V206.19A2.41,2.41,0,0,0,659.55,203.78Z" transform="translate(-632.44 -164.92)" style="fill: none;stroke-linecap: round;stroke-linejoin: round;stroke-width: 2px;stroke: url(#b)"/>
  <polyline points="19.2 44.9 11.59 52.58 19.2 52.58 11.59 60.25" style="fill: none;stroke-linecap: round;stroke-linejoin: round;stroke-width: 2px;stroke: url(#c)"/>
</svg>
