<svg xmlns="http://www.w3.org/2000/svg" xmlns:xlink="http://www.w3.org/1999/xlink" viewBox="0 0 62.32 35.12">
  <defs>
    <linearGradient id="a" x1="636.1" y1="349.05" x2="698.41" y2="349.05" gradientUnits="userSpaceOnUse">
      <stop offset="0" stop-color="#f57f20"/>
      <stop offset="0.49" stop-color="#fdb714"/>
      <stop offset="1" stop-color="#f57f20"/>
    </linearGradient>
    <linearGradient id="b" x1="18.79" y1="17.36" x2="43.38" y2="17.36" xlink:href="#a"/>
  </defs>
  <path d="M696.08,342.6H682.16a1.33,1.33,0,0,1-1.33-1.33v-7.45a1.33,1.33,0,0,0-1.33-1.33h-25a1.33,1.33,0,0,0-1.32,1.33v7.45a1.34,1.34,0,0,1-1.33,1.33H638.42a1.32,1.32,0,0,0-1.32,1.32v9.93a1.32,1.32,0,0,0,1.32,1.33h13.47a1.33,1.33,0,0,1,1.33,1.33v7.77a1.32,1.32,0,0,0,1.32,1.33h25a1.32,1.32,0,0,0,1.33-1.33v-7.77a1.32,1.32,0,0,1,1.33-1.33h13.92a1.32,1.32,0,0,0,1.33-1.33v-9.93A1.32,1.32,0,0,0,696.08,342.6Z" transform="translate(-636.1 -331.49)" style="fill: none;stroke-miterlimit: 10;stroke-width: 2px;stroke: url(#a)"/>
  <polygon points="19.79 10.06 19.79 24.65 42.38 10.06 42.38 24.65 19.79 10.06" style="fill: none;stroke-linecap: round;stroke-linejoin: round;stroke-width: 2px;stroke: url(#b)"/>
</svg>
