<svg xmlns="http://www.w3.org/2000/svg" xmlns:xlink="http://www.w3.org/1999/xlink" viewBox="0 0 29.52 61.8">
  <defs>
    <linearGradient id="a" x1="737.82" y1="414.19" x2="746.06" y2="414.19" gradientUnits="userSpaceOnUse">
      <stop offset="0" stop-color="#f57f20"/>
      <stop offset="0.49" stop-color="#fdb714"/>
      <stop offset="1" stop-color="#f57f20"/>
    </linearGradient>
    <linearGradient id="b" x1="1350.26" y1="255.89" x2="1366.79" y2="255.89" gradientTransform="translate(-241.13 1406.25) rotate(-90)" xlink:href="#a"/>
    <linearGradient id="c" x1="727.18" y1="432.59" x2="756.7" y2="432.59" xlink:href="#a"/>
  </defs>
  <g>
    <path d="M744.63,414.62l-2.69-5.55-2.7,5.55h0a3.13,3.13,0,1,0,5.39,0Z" transform="translate(-727.18 -401.7)" style="fill: none;stroke-linecap: round;stroke-linejoin: round;stroke-width: 2px;stroke: url(#a)"/>
    <polygon points="14.76 54.99 22.27 40.46 7.24 40.46 14.76 54.99" style="fill: none;stroke-linecap: round;stroke-linejoin: round;stroke-width: 2px;stroke: url(#b)"/>
    <path d="M752.84,435h-8.22v-7.72h3.62a2.85,2.85,0,0,0,2.85-2.85V405.55a2.84,2.84,0,0,0-2.85-2.85H735.63a2.85,2.85,0,0,0-2.85,2.85V424.4a2.86,2.86,0,0,0,2.85,2.85h3.64V435H731a2.85,2.85,0,0,0-2.85,2.86v21.81a2.84,2.84,0,0,0,2.85,2.85h21.81a2.85,2.85,0,0,0,2.86-2.85V437.83A2.86,2.86,0,0,0,752.84,435Z" transform="translate(-727.18 -401.7)" style="fill: none;stroke-linecap: round;stroke-linejoin: round;stroke-width: 2px;stroke: url(#c)"/>
  </g>
</svg>
