<svg xmlns="http://www.w3.org/2000/svg" xmlns:xlink="http://www.w3.org/1999/xlink" viewBox="0 0 41.38 120.28">
  <defs>
    <linearGradient id="a" x1="156.17" y1="272.26" x2="171.81" y2="272.26" gradientUnits="userSpaceOnUse">
      <stop offset="0" stop-color="#f57f20"/>
      <stop offset="0.49" stop-color="#fdb714"/>
      <stop offset="1" stop-color="#f57f20"/>
    </linearGradient>
    <linearGradient id="b" x1="148.46" y1="165.07" x2="148.46" y2="165.07" xlink:href="#a"/>
    <linearGradient id="c" x1="143.3" y1="210.5" x2="184.68" y2="210.5" xlink:href="#a"/>
  </defs>
  <path d="M169.74,273.18,164,261.34l-5.75,11.84h0a6.57,6.57,0,0,0-.91,3.35,6.66,6.66,0,1,0,12.41-3.35Z" transform="translate(-143.3 -164.07)" style="fill: none;stroke-linecap: round;stroke-linejoin: round;stroke-width: 2.33028704642819px;stroke: url(#a)"/>
  <path d="M148.46,165.07" transform="translate(-143.3 -164.07)" style="fill: none;stroke-linecap: round;stroke-linejoin: round;stroke-width: 2px;stroke: url(#b)"/>
  <path d="M148.46,165.07v84.68a.69.69,0,0,1-.69.69H145a.67.67,0,0,0-.68.68v4.13a.68.68,0,0,0,.68.69h38a.69.69,0,0,0,.69-.69v-4.13a.68.68,0,0,0-.69-.68h-2.36a.69.69,0,0,1-.68-.69V165.07" transform="translate(-143.3 -164.07)" style="fill: none;stroke-linecap: round;stroke-linejoin: round;stroke-width: 2px;stroke: url(#c)"/>
</svg>
