<svg xmlns="http://www.w3.org/2000/svg" xmlns:xlink="http://www.w3.org/1999/xlink" viewBox="0 0 35.36 29.7">
  <defs>
    <linearGradient id="a" y1="14.85" x2="35.36" y2="14.85" gradientUnits="userSpaceOnUse">
      <stop offset="0" stop-color="#f57f20"/>
      <stop offset="0.49" stop-color="#fdb714"/>
      <stop offset="1" stop-color="#f57f20"/>
    </linearGradient>
    <linearGradient id="b" x1="690.16" y1="1354.82" x2="692.16" y2="1354.82" gradientTransform="translate(1361.81 -676.25) rotate(90)" xlink:href="#a"/>
    <linearGradient id="c" x1="690.16" y1="1333.79" x2="692.16" y2="1333.79" gradientTransform="translate(1361.81 -676.25) rotate(90)" xlink:href="#a"/>
    <linearGradient id="d" x1="685.27" y1="1353.71" x2="687.27" y2="1353.71" gradientTransform="translate(1361.81 -676.25) rotate(90)" xlink:href="#a"/>
    <linearGradient id="e" x1="685.27" y1="1334.98" x2="687.27" y2="1334.98" gradientTransform="translate(1361.81 -676.25) rotate(90)" xlink:href="#a"/>
    <linearGradient id="g" x1="685.27" y1="1334.82" x2="687.27" y2="1334.82" gradientTransform="translate(1361.81 -676.25) rotate(90)" xlink:href="#a"/>
    <linearGradient id="h" x1="680.38" y1="1344.56" x2="682.38" y2="1344.56" gradientTransform="translate(1361.81 -676.25) rotate(90)" xlink:href="#a"/>
    <linearGradient id="i" x1="695.27" y1="1355.32" x2="697.27" y2="1355.32" gradientTransform="translate(1361.81 -676.25) rotate(90)" xlink:href="#a"/>
    <linearGradient id="j" x1="695.27" y1="1333.37" x2="697.27" y2="1333.37" gradientTransform="translate(1361.81 -676.25) rotate(90)" xlink:href="#a"/>
    <linearGradient id="k" x1="699.89" y1="1344.56" x2="701.89" y2="1344.56" gradientTransform="translate(1361.81 -676.25) rotate(90)" xlink:href="#a"/>
    <linearGradient id="l" x1="578.46" y1="271.84" x2="591.49" y2="271.84" xlink:href="#a"/>
  </defs>
  <g>
    <rect x="1" y="1" width="33.36" height="27.7" rx="7.79" style="fill: none;stroke-miterlimit: 10;stroke-width: 2px;stroke: url(#a)"/>
    <line x1="13.41" y1="14.91" x2="0.57" y2="14.91" style="fill: none;stroke-miterlimit: 10;stroke-width: 2px;stroke: url(#b)"/>
    <line x1="33.93" y1="14.91" x2="22.1" y2="14.91" style="fill: none;stroke-miterlimit: 10;stroke-width: 2px;stroke: url(#c)"/>
    <line x1="15.63" y1="10.02" x2="0.57" y2="10.02" style="fill: none;stroke-miterlimit: 10;stroke-width: 2px;stroke: url(#d)"/>
    <line x1="33.93" y1="10.02" x2="19.73" y2="10.02" style="fill: none;stroke-miterlimit: 10;stroke-width: 2px;stroke: url(#e)"/>
    <line x1="0.57" y1="10.02" x2="15.63" y2="10.02" style="fill: none;stroke-miterlimit: 10;stroke-width: 2px;stroke: url(#d)"/>
    <line x1="33.93" y1="10.02" x2="20.05" y2="10.02" style="fill: none;stroke-miterlimit: 10;stroke-width: 2px;stroke: url(#g)"/>
    <line x1="33.93" y1="5.13" x2="0.57" y2="5.13" style="fill: none;stroke-miterlimit: 10;stroke-width: 2px;stroke: url(#h)"/>
    <line x1="12.41" y1="20.01" x2="0.57" y2="20.01" style="fill: none;stroke-miterlimit: 10;stroke-width: 2px;stroke: url(#i)"/>
    <line x1="33.93" y1="20.01" x2="22.95" y2="20.01" style="fill: none;stroke-miterlimit: 10;stroke-width: 2px;stroke: url(#j)"/>
    <line x1="33.93" y1="24.63" x2="0.57" y2="24.63" style="fill: none;stroke-miterlimit: 10;stroke-width: 2px;stroke: url(#k)"/>
    <path d="M580.58,271.84l-.37.75h0a5.58,5.58,0,0,0-.75,2.78,5.52,5.52,0,0,0,11,0,5.58,5.58,0,0,0-.75-2.78l-4.77-9.8-4.39,9" transform="translate(-567.29 -256.99)" style="fill: none;stroke-linecap: round;stroke-linejoin: round;stroke-width: 2px;stroke: url(#l)"/>
  </g>
</svg>
