<svg xmlns="http://www.w3.org/2000/svg" xmlns:xlink="http://www.w3.org/1999/xlink" viewBox="0 0 32.15 68.12">
  <defs>
    <linearGradient id="a" x1="675.77" y1="426.66" x2="689.12" y2="426.66" gradientUnits="userSpaceOnUse">
      <stop offset="0" stop-color="#f57f20"/>
      <stop offset="0.49" stop-color="#fdb714"/>
      <stop offset="1" stop-color="#f57f20"/>
    </linearGradient>
    <linearGradient id="b" x1="958.36" y1="104.48" x2="962.79" y2="104.48" gradientTransform="translate(-74.3 995.37) rotate(-45)" xlink:href="#a"/>
    <linearGradient id="c" x1="666.37" y1="407.28" x2="698.52" y2="407.28" xlink:href="#a"/>
  </defs>
  <path d="M687.35,427.44l-4.91-10.09-4.9,10.09h0a5.68,5.68,0,1,0,9.81,0Z" transform="translate(-666.37 -373.22)" style="fill: none;stroke-linecap: round;stroke-linejoin: round;stroke-width: 2px;stroke: url(#a)"/>
  <path d="M683.75,394.5l-.46.47a1.89,1.89,0,0,1-2.78-.13l-6.45-9a.39.39,0,0,1,.55-.55l9,6.44A1.88,1.88,0,0,1,683.75,394.5Z" transform="translate(-666.37 -373.22)" style="fill: url(#b)"/>
  <path d="M693.92,412.73h-9.66v-4.29a15.08,15.08,0,0,0,1.27-29.73,2,2,0,0,0,0-.35V376.5a2.28,2.28,0,0,0-2.28-2.28h-1.87a2.28,2.28,0,0,0-2.28,2.28v1.86a2.34,2.34,0,0,0,0,.39,15.08,15.08,0,0,0,1.45,29.69v4.29h-9.41a2.45,2.45,0,0,0-2.45,2.45v22.71a2.45,2.45,0,0,0,2.45,2.45h22.7a2.45,2.45,0,0,0,2.45-2.45V415.18A2.45,2.45,0,0,0,693.92,412.73Z" transform="translate(-666.37 -373.22)" style="fill: none;stroke-linecap: round;stroke-linejoin: round;stroke-width: 2px;stroke: url(#c)"/>
</svg>
