<svg xmlns="http://www.w3.org/2000/svg" xmlns:xlink="http://www.w3.org/1999/xlink" viewBox="0 0 41.38 74.84">
  <defs>
    <linearGradient id="a" x1="297.1" y1="259.93" x2="312.74" y2="259.93" gradientUnits="userSpaceOnUse">
      <stop offset="0" stop-color="#f57f20"/>
      <stop offset="0.49" stop-color="#fdb714"/>
      <stop offset="1" stop-color="#f57f20"/>
    </linearGradient>
    <linearGradient id="b" x1="283.08" y1="220.89" x2="324.46" y2="220.89" xlink:href="#a"/>
  </defs>
  <path d="M310.67,260.85,304.92,249l-5.76,11.84h0a6.66,6.66,0,1,0,11.51,0Z" transform="translate(-283.08 -197.17)" style="fill: none;stroke-linecap: round;stroke-linejoin: round;stroke-width: 2.33028704642819px;stroke: url(#a)"/>
  <path d="M319.73,236.89v-37.5a1.22,1.22,0,0,0-1.21-1.22H289.45a1.22,1.22,0,0,0-1.21,1.22v37.5a1.22,1.22,0,0,1-1.22,1.22H285.3a1.21,1.21,0,0,0-1.22,1.21v3.07a1.22,1.22,0,0,0,1.22,1.22h36.94a1.22,1.22,0,0,0,1.22-1.22v-3.07a1.21,1.21,0,0,0-1.22-1.21H321A1.22,1.22,0,0,1,319.73,236.89Z" transform="translate(-283.08 -197.17)" style="fill: none;stroke-linecap: round;stroke-linejoin: round;stroke-width: 2px;stroke: url(#b)"/>
</svg>
