<svg xmlns="http://www.w3.org/2000/svg" xmlns:xlink="http://www.w3.org/1999/xlink" viewBox="0 0 31.01 65.62">
  <defs>
    <linearGradient id="a" x1="10.91" y1="51.48" x2="23.79" y2="51.48" gradientUnits="userSpaceOnUse">
      <stop offset="0" stop-color="#f57f20"/>
      <stop offset="0.49" stop-color="#fdb714"/>
      <stop offset="1" stop-color="#f57f20"/>
    </linearGradient>
    <linearGradient id="b" x1="926.82" y1="220.51" x2="931.08" y2="220.51" gradientTransform="translate(-74.3 995.37) rotate(-45)" xlink:href="#a"/>
    <linearGradient id="c" x1="726.43" y1="511.08" x2="757.44" y2="511.08" xlink:href="#a"/>
    <linearGradient id="d" x1="7.03" y1="51.48" x2="9.03" y2="51.48" xlink:href="#a"/>
  </defs>
  <polygon points="11.91 51.48 22.79 57.1 22.79 45.86 11.91 51.48" style="fill: none;stroke-linejoin: round;stroke-width: 2px;stroke: url(#a)"/>
  <path d="M743.25,498.73l-.45.45a1.81,1.81,0,0,1-2.67-.12l-6.21-8.68a.38.38,0,0,1,.53-.53l8.67,6.2A1.81,1.81,0,0,1,743.25,498.73Z" transform="translate(-726.43 -478.27)" style="fill: url(#b)"/>
  <path d="M753,516.32h-9.3v-4.13a14.51,14.51,0,0,0,1.23-28.6,1.84,1.84,0,0,0,0-.33v-1.8a2.19,2.19,0,0,0-2.19-2.19H741a2.19,2.19,0,0,0-2.19,2.19v1.8a2.21,2.21,0,0,0,0,.37,14.5,14.5,0,0,0,1.39,28.56v4.13h-9.05a2.36,2.36,0,0,0-2.36,2.36v21.85a2.35,2.35,0,0,0,2.36,2.35H753a2.36,2.36,0,0,0,2.36-2.35V518.68A2.36,2.36,0,0,0,753,516.32Z" transform="translate(-726.43 -478.27)" style="fill: none;stroke-linecap: round;stroke-linejoin: round;stroke-width: 2px;stroke: url(#c)"/>
  <line x1="8.03" y1="45.86" x2="8.03" y2="57.1" style="fill: none;stroke-linecap: round;stroke-linejoin: round;stroke-width: 2px;stroke: url(#d)"/>
</svg>
