<svg xmlns="http://www.w3.org/2000/svg" xmlns:xlink="http://www.w3.org/1999/xlink" viewBox="0 0 63.85 35.96">
  <defs>
    <linearGradient id="a" x1="801.15" y1="351.58" x2="865" y2="351.58" gradientUnits="userSpaceOnUse">
      <stop offset="0" stop-color="#f57f20"/>
      <stop offset="0.49" stop-color="#fdb714"/>
      <stop offset="1" stop-color="#f57f20"/>
    </linearGradient>
    <linearGradient id="b" x1="1094.93" y1="182.81" x2="1097.83" y2="182.81" gradientTransform="translate(-74.3 995.37) rotate(-45)" xlink:href="#a"/>
    <linearGradient id="c" x1="821.55" y1="350.33" x2="843.3" y2="350.33" xlink:href="#a"/>
  </defs>
  <path d="M862.64,345H848.36A1.36,1.36,0,0,1,847,343.6V336a1.36,1.36,0,0,0-1.36-1.36H820a1.36,1.36,0,0,0-1.36,1.36v7.64a1.36,1.36,0,0,1-1.36,1.36H803.51a1.36,1.36,0,0,0-1.36,1.36v10.19a1.36,1.36,0,0,0,1.36,1.36h13.81a1.36,1.36,0,0,1,1.36,1.36v8a1.36,1.36,0,0,0,1.36,1.36h25.6A1.36,1.36,0,0,0,847,367.2v-8a1.36,1.36,0,0,1,1.36-1.36h14.28a1.36,1.36,0,0,0,1.36-1.36V346.32A1.36,1.36,0,0,0,862.64,345Z" transform="translate(-801.15 -333.6)" style="fill: none;stroke-miterlimit: 10;stroke-width: 2px;stroke: url(#a)"/>
  <path d="M833.46,352.32l-.3.3a1.24,1.24,0,0,1-1.82-.08l-4.22-5.91a.26.26,0,0,1,.36-.36l5.9,4.22A1.24,1.24,0,0,1,833.46,352.32Z" transform="translate(-801.15 -333.6)" style="fill: url(#b)"/>
  <path d="M831.24,361.53a9.87,9.87,0,0,1-1-19.44,1.9,1.9,0,0,1,0-.25v-1.22a1.5,1.5,0,0,1,1.5-1.5H833a1.5,1.5,0,0,1,1.49,1.5v1.22a1.79,1.79,0,0,1,0,.23,9.87,9.87,0,0,1-.84,19.46S832.7,361.5,831.24,361.53Z" transform="translate(-801.15 -333.6)" style="fill: none;stroke-linecap: round;stroke-linejoin: round;stroke-width: 2px;stroke: url(#c)"/>
</svg>
