<svg xmlns="http://www.w3.org/2000/svg" viewBox="0 0 85.48 75.17"><path d="M328.45,135.76l-19.23-33a4.53,4.53,0,0,0-3.9-2.24H267.09a4.52,4.52,0,0,0-3.91,2.26l-19,32.93a4.51,4.51,0,0,0,0,4.48l18.73,33.17a4.52,4.52,0,0,0,3.93,2.29l38.65,0a4.49,4.49,0,0,0,3.91-2.26l19.07-33.17A4.53,4.53,0,0,0,328.45,135.76Zm-62.1-14.94c0-1.47.51-2.67,2-2.67h3.95a2.38,2.38,0,0,1,2,1.09,2.66,2.66,0,0,0,2.22,1.2h27.77c1.51,0,2.05,1.29,2.05,2.79v2.37a5.29,5.29,0,0,0-1.55-.24H267.9a5.29,5.29,0,0,0-1.55.24Zm41.13,33.61a2.74,2.74,0,0,1-2.74,2.74H293.67v-9.78a2.13,2.13,0,1,0-2.14,0v9.78h-4.29v-17a2.12,2.12,0,1,0-3.2-1.82,2.1,2.1,0,0,0,1,1.82v17H280.8v-9.78a2.13,2.13,0,1,0-3.2-1.83,2.14,2.14,0,0,0,1,1.83v9.78H267.9a2.73,2.73,0,0,1-2.73-2.74v-24a2.73,2.73,0,0,1,2.73-2.73h36.84a2.74,2.74,0,0,1,2.74,2.73Z" transform="translate(-243.58 -100.54)"/></svg>