<svg xmlns="http://www.w3.org/2000/svg" viewBox="0 0 515.38 238.03">
  <g>
    <path d="M298.9,265h24.51v6.26H305.78v21H320v6.26H305.78v28.22H298.9Z" transform="translate(-121.89 -89.61)"/>
    <path d="M343.46,265h6.87V320.5H368v6.26H343.46Z" transform="translate(-121.89 -89.61)"/>
    <path d="M384.43,312.39V279.32c0-9.78,5-15.16,14.11-15.16s14.19,5.38,14.19,15.16v33.07c0,9.78-5,15.25-14.19,15.25S384.43,322.17,384.43,312.39Zm21.42.44V278.88c0-5.82-2.64-8.46-7.31-8.46s-7.23,2.64-7.23,8.46v33.95c0,5.9,2.64,8.55,7.23,8.55S405.85,318.73,405.85,312.83Z" transform="translate(-121.89 -89.61)"/>
    <path d="M429.19,265h6.7l6.18,52.2,6.35-52.2h7.75l6.44,52.2,6.17-52.2h6.09l-7.59,61.72h-8.81l-6.18-48.14L446,326.76h-9.25Z" transform="translate(-121.89 -89.61)"/>
  </g>
  <g>
    <path d="M416.4,150.17V97.36a7.51,7.51,0,0,1,7.54-7.54h5.87a7.51,7.51,0,0,1,7.54,7.54V223.52a7.52,7.52,0,0,1-7.54,7.55h-5.87a7.52,7.52,0,0,1-7.54-7.55v-52.6H393.13v52.6a7.52,7.52,0,0,1-7.54,7.55h-5.87a7.52,7.52,0,0,1-7.54-7.55V97.36a7.51,7.51,0,0,1,7.54-7.54h5.87a7.51,7.51,0,0,1,7.54,7.54v52.81Z" transform="translate(-121.89 -89.61)"/>
    <path d="M474.87,223.52a7.66,7.66,0,0,1-7.55,7.55h-5.87a7.52,7.52,0,0,1-7.54-7.55V97.36a7.51,7.51,0,0,1,7.54-7.54h5.87a7.65,7.65,0,0,1,7.55,7.54Z" transform="translate(-121.89 -89.61)"/>
    <path d="M525.79,175.32l18.65-79.84c.63-3.15,4.19-5.87,7.33-5.87h6.08a7.43,7.43,0,0,1,7.34,9.22L535.43,225a8,8,0,0,1-7.34,5.87h-4.4a7.61,7.61,0,0,1-7.33-5.87L486.6,98.83c-1.26-4.82,2.09-9.22,7.33-9.22h5.87a8.25,8.25,0,0,1,7.33,5.87Z" transform="translate(-121.89 -89.61)"/>
    <path d="M629.73,89.82a7.52,7.52,0,0,1,7.55,7.54V103a7.52,7.52,0,0,1-7.55,7.55H597.67V150h26.4a7.52,7.52,0,0,1,7.55,7.55v5.66a7.52,7.52,0,0,1-7.55,7.54h-26.4v39.61h32.06a7.52,7.52,0,0,1,7.55,7.55v5.65a7.52,7.52,0,0,1-7.55,7.55H584.46a7.52,7.52,0,0,1-7.54-7.55V97.36a7.51,7.51,0,0,1,7.54-7.54Z" transform="translate(-121.89 -89.61)"/>
  </g>
  <path d="M330.78,167.13a13,13,0,1,0,0-14.53h-16.1l-9.76-16.9h25.85a13,13,0,1,0,0-14.52l-34.25,0-10.25-17.76a14,14,0,0,0-24.28,0l-10.24,17.75H231.43l6-10.48a14,14,0,0,0-12.13-21h-57a14.07,14.07,0,0,0-12.15,7L123.76,152.8a14.07,14.07,0,0,0,0,14L156.18,223a14.06,14.06,0,0,0,12.14,7h57a14,14,0,0,0,12.13-21l-6-10.42h20.35L262,216.19a14,14,0,0,0,24.28,0l10.2-17.66h34.29a13,13,0,1,0,0-14.52H304.87l9.75-16.89Zm-87.39-31.45-9.75,16.89H213.29L223,135.67Zm-74.78,79.75L136.49,159.8l32.12-55.63h55.85L196.38,152.8a14,14,0,0,0,0,14l28.07,48.62ZM223.07,184l-9.76-16.9h20.36l9.75,16.9Zm51.08,24.19L246.23,159.8l27.92-48.37,27.93,48.37Z" transform="translate(-121.89 -89.61)"/>
</svg>
