<svg xmlns="http://www.w3.org/2000/svg" viewBox="0 0 197.42 91.39">
  <g>
    <path d="M164.8,80.23V61.15a2.72,2.72,0,0,1,2.73-2.73h2.12a2.71,2.71,0,0,1,2.73,2.73v45.59a2.71,2.71,0,0,1-2.73,2.73h-2.12a2.72,2.72,0,0,1-2.73-2.73v-19h-8.4v19a2.72,2.72,0,0,1-2.73,2.73h-2.12a2.71,2.71,0,0,1-2.73-2.73V61.15a2.71,2.71,0,0,1,2.73-2.73h2.12a2.72,2.72,0,0,1,2.73,2.73V80.23Z" transform="translate(-47.2 -55.38)" style="fill: #65695c"/>
    <path d="M185.93,106.74a2.76,2.76,0,0,1-2.72,2.73h-2.12a2.71,2.71,0,0,1-2.73-2.73V61.15a2.71,2.71,0,0,1,2.73-2.73h2.12a2.76,2.76,0,0,1,2.72,2.73Z" transform="translate(-47.2 -55.38)" style="fill: #65695c"/>
    <path d="M204.34,89.32l6.74-28.85a2.9,2.9,0,0,1,2.65-2.12h2.19a2.69,2.69,0,0,1,2.66,3.33l-10.76,45.59a2.89,2.89,0,0,1-2.65,2.12h-1.59a2.76,2.76,0,0,1-2.65-2.12L190.17,61.68a2.62,2.62,0,0,1,2.65-3.33H195a3,3,0,0,1,2.65,2.12Z" transform="translate(-47.2 -55.38)" style="fill: #65695c"/>
    <path d="M241.9,58.42a2.71,2.71,0,0,1,2.73,2.73v2a2.71,2.71,0,0,1-2.73,2.73H230.31V80.16h9.55a2.71,2.71,0,0,1,2.72,2.73v2a2.72,2.72,0,0,1-2.72,2.73h-9.55V102H241.9a2.71,2.71,0,0,1,2.73,2.73v2a2.71,2.71,0,0,1-2.73,2.73H225.54a2.71,2.71,0,0,1-2.72-2.73V61.15a2.71,2.71,0,0,1,2.72-2.73Z" transform="translate(-47.2 -55.38)" style="fill: #65695c"/>
  </g>
  <g>
    <path d="M61.49,141.44V129.1c0-3.35,1.79-5.33,5-5.33s5,2,5,5.33v2.3H69.1v-2.46c0-1.91-1-2.91-2.56-2.91S64,127,64,128.94V141.6c0,1.92,1,2.91,2.55,2.91s2.56-1,2.56-2.91v-3.13h2.37v3c0,3.32-1.76,5.34-5,5.34S61.49,144.76,61.49,141.44Z" transform="translate(-47.2 -55.38)" style="fill: #65695c"/>
    <path d="M88.15,141.25v-12c0-3.55,1.83-5.49,5.12-5.49s5.14,1.94,5.14,5.49v12c0,3.55-1.82,5.53-5.14,5.53S88.15,144.8,88.15,141.25Zm7.77.16V129.1c0-2.11-1-3.07-2.65-3.07s-2.62,1-2.62,3.07v12.31c0,2.14,1,3.1,2.62,3.1S95.92,143.55,95.92,141.41Z" transform="translate(-47.2 -55.38)" style="fill: #65695c"/>
    <path d="M115.58,124.09h3.61l3.3,17.86,3.26-17.86h3.64v22.37H127V127.79l-3.55,18.67h-2.1l-3.55-18.67v18.67h-2.21Z" transform="translate(-47.2 -55.38)" style="fill: #65695c"/>
    <path d="M146.81,124.09h3.61l3.3,17.86L157,124.09h3.64v22.37h-2.4V127.79l-3.55,18.67h-2.1L149,127.79v18.67h-2.21Z" transform="translate(-47.2 -55.38)" style="fill: #65695c"/>
    <path d="M185.39,141.7h-5.17l-.83,4.76h-2.34l4.16-22.37h3.35l4.19,22.37h-2.52Zm-.38-2.18-2.24-12.59-2.17,12.59Z" transform="translate(-47.2 -55.38)" style="fill: #65695c"/>
    <path d="M205.21,124.09h3.2l5.05,16v-16h2.27v22.37h-2.59l-5.66-18.19v18.19h-2.27Z" transform="translate(-47.2 -55.38)" style="fill: #65695c"/>
    <path d="M233.19,124.09h5.11c3.45,0,5,1.82,5,5.43V141c0,3.62-1.6,5.44-5,5.44h-5.11Zm5.05,20.1c1.75,0,2.62-.86,2.62-3.07V129.39c0-2.2-.87-3-2.62-3h-2.56v17.84Z" transform="translate(-47.2 -55.38)" style="fill: #65695c"/>
  </g>
  <path d="M132,86.84a5.29,5.29,0,1,0,0-5.9h-6.54l-4-6.86H132a5.3,5.3,0,1,0,0-5.9H118.11L114,61a5.7,5.7,0,0,0-9.86,0l-4.15,7.21H91.68l2.45-4.25a5.7,5.7,0,0,0-4.93-8.54H66.05a5.72,5.72,0,0,0-4.93,2.85L48,81a5.72,5.72,0,0,0,0,5.69l13.16,22.8a5.73,5.73,0,0,0,4.93,2.84H89.2a5.7,5.7,0,0,0,4.93-8.54l-2.44-4.23H100l4.14,7.18a5.69,5.69,0,0,0,9.86,0l4.14-7.17H132a5.29,5.29,0,1,0,0-5.9H121.5l4-6.86ZM96.53,74.07l-4,6.86H84.31l4-6.86ZM66.17,106.45l-13-22.58,13-22.59H88.85L77.45,81a5.72,5.72,0,0,0,0,5.69l11.4,19.74ZM88.28,93.68l-4-6.86h8.26l4,6.86ZM109,103.51,97.69,83.87,109,64.23l11.34,19.64Z" transform="translate(-47.2 -55.38)" style="fill: #65695c"/>
</svg>
