<svg xmlns="http://www.w3.org/2000/svg" viewBox="0 0 51.41 47.72"><rect width="51.41" height="7.22" rx="3.37"/><path d="M210,156.4H165.53a3.47,3.47,0,0,0-3.47,3.47v5.6h11.68a2.68,2.68,0,1,1,0,2.7H162.06v5.4h20.72a2.68,2.68,0,1,1,0,2.7H162.06v5.4h11.68a2.68,2.68,0,1,1,0,2.7H162.06V190a3.47,3.47,0,0,0,3.46,3.47h21.65a3.65,3.65,0,0,0,.74-.08c10.88-2.36,11.64-5.66,8.18-10.36a3.12,3.12,0,0,1,1.9-4.9c13.55-2.82,15.47-8.05,15.47-9.3v-8.94A3.47,3.47,0,0,0,210,156.4Z" transform="translate(-162.06 -145.72)"/><path d="M198.06,193.45h12a3.37,3.37,0,0,0,3.37-3.38V175.68Z" transform="translate(-162.06 -145.72)"/></svg>