<svg xmlns="http://www.w3.org/2000/svg" viewBox="0 0 43.3 54.01"><path d="M341.62,187.61,333,172.72a4.4,4.4,0,0,0-3.8-2.18h-1.4v15.08a1.63,1.63,0,0,1-.81,1.41l-5.53,3.22a1.61,1.61,0,0,1-1.63,0l-5.56-3.2a1.62,1.62,0,0,1-.82-1.41V170.54h-1.51a4.38,4.38,0,0,0-3.8,2.2l-8.58,14.87a4.41,4.41,0,0,0,0,4.35l7.1,12.56v13.39a6.63,6.63,0,0,0,5.4,6.52l1,.09v-9.39a2.13,2.13,0,0,1-1.07-1.85,2.16,2.16,0,1,1,4.32,0,2.13,2.13,0,0,1-1.07,1.85v9.42h4.35V207.84a2.16,2.16,0,0,1,1.09-4,2.16,2.16,0,0,1,1.09,4v16.71H326v-9.42a2.13,2.13,0,0,1-1.07-1.85,2.16,2.16,0,1,1,4.32,0,2.13,2.13,0,0,1-1.07,1.85v9.41l1.08-.11a6.64,6.64,0,0,0,5.4-6.52v-13.8l7-12.1A4.38,4.38,0,0,0,341.62,187.61Z" transform="translate(-298.93 -170.54)"/></svg>