<svg xmlns="http://www.w3.org/2000/svg" viewBox="0 0 176.27 106">
  <path d="M834.15,312.79a10,10,0,0,0,15.92.92A9.79,9.79,0,0,0,852,304a10,10,0,0,0-17.81-2.43h-12l-7.52-13h19.82a9.66,9.66,0,1,0,2.63-13.4,9.54,9.54,0,0,0-2.63,2.63H808.36l-7.76-13.47a10.61,10.61,0,0,0-18.35,0l-7.74,13.47H759.14l4.57-7.92A10.59,10.59,0,0,0,754.54,254H711.33a10.65,10.65,0,0,0-9.18,5.29l-24.48,42.42a10.63,10.63,0,0,0,0,10.58l24.49,42.42a10.58,10.58,0,0,0,9.17,5.29H754.5a10.61,10.61,0,0,0,9.19-15.91l-4.55-7.89h15.4l7.73,13.65a10.6,10.6,0,0,0,18.36,0l7.73-13.21h25.7a10.09,10.09,0,0,0,16,.92,9.84,9.84,0,0,0,1.89-9.67,10.08,10.08,0,0,0-15.19-5.21,9.93,9.93,0,0,0-2.74,2.74h-19.3L822,312.84ZM768,289l-7.27,12.58H745.58L752.84,289ZM711.6,349.22l-24.26-42,24.26-42h42.17L732.58,302a10.58,10.58,0,0,0,0,10.58l21.19,36.69Zm41.26-23.81-7.25-12.57h15.13L768,325.42Zm38.64,18.31-21.12-36.61,21.12-36.6,21.14,36.6Z" transform="translate(-676.26 -254)" style="fill: #a1b593"/>
</svg>
