<svg xmlns="http://www.w3.org/2000/svg" viewBox="0 0 515.38 236.91">
  <g>
    <path d="M359.9,207.23V154.41a7.52,7.52,0,0,1,7.55-7.54h5.87a7.51,7.51,0,0,1,7.54,7.54V280.58a7.51,7.51,0,0,1-7.54,7.54h-5.87a7.52,7.52,0,0,1-7.55-7.54V228H336.64v52.61a7.51,7.51,0,0,1-7.54,7.54h-5.87a7.52,7.52,0,0,1-7.55-7.54V154.41a7.52,7.52,0,0,1,7.55-7.54h5.87a7.51,7.51,0,0,1,7.54,7.54v52.82Z" transform="translate(-65.4 -146.66)"/>
    <path d="M418.37,280.58a7.64,7.64,0,0,1-7.54,7.54H405a7.52,7.52,0,0,1-7.55-7.54V154.41a7.52,7.52,0,0,1,7.55-7.54h5.87a7.64,7.64,0,0,1,7.54,7.54Z" transform="translate(-65.4 -146.66)"/>
    <path d="M469.29,232.37,488,152.53c.62-3.15,4.19-5.87,7.33-5.87h6.08a7.42,7.42,0,0,1,7.33,9.22L478.93,282a8,8,0,0,1-7.33,5.87h-4.4a7.62,7.62,0,0,1-7.34-5.87L430.1,155.88c-1.26-4.82,2.1-9.22,7.34-9.22h5.87a8.26,8.26,0,0,1,7.33,5.87Z" transform="translate(-65.4 -146.66)"/>
    <path d="M573.24,146.87a7.51,7.51,0,0,1,7.54,7.54v5.66a7.52,7.52,0,0,1-7.54,7.55H541.17V207h26.41a7.51,7.51,0,0,1,7.54,7.54v5.66a7.51,7.51,0,0,1-7.54,7.54H541.17v39.61h32.07a7.52,7.52,0,0,1,7.54,7.55v5.66a7.51,7.51,0,0,1-7.54,7.54H528a7.51,7.51,0,0,1-7.54-7.54V154.41a7.51,7.51,0,0,1,7.54-7.54Z" transform="translate(-65.4 -146.66)"/>
  </g>
  <path d="M274.29,224.18a13,13,0,1,0,0-14.53h-16.1l-9.75-16.9h25.85a13,13,0,1,0,0-14.52H240.05L229.8,160.46a14,14,0,0,0-24.28,0l-10.24,17.75H174.93l6-10.47a14,14,0,0,0-12.14-21h-57a14.05,14.05,0,0,0-12.14,7L67.27,209.85a14.07,14.07,0,0,0,0,14L99.68,280a14.07,14.07,0,0,0,12.14,7h57A14,14,0,0,0,181,266l-6-10.42h20.35l10.21,17.67a14,14,0,0,0,24.28,0L240,255.58h34.29a13,13,0,1,0,0-14.52H248.38l9.75-16.89Zm-87.4-31.45-9.75,16.89H156.8l9.75-16.89Zm-74.78,79.75L80,216.85l32.11-55.63H168l-28.07,48.63a14.07,14.07,0,0,0,0,14L168,272.48ZM166.57,241l-9.75-16.9h20.35l9.76,16.9Zm51.09,24.19-27.92-48.37,27.92-48.36,27.92,48.36Z" transform="translate(-65.4 -146.66)"/>
  <g>
    <path d="M245.2,321.21h10.06l9.18,49.8,9.09-49.8h10.15v62.36H277v-52l-9.89,52h-5.88l-9.89-52v52H245.2Z" transform="translate(-65.4 -146.66)"/>
    <path d="M305.51,321.21h6.95v62.36h-6.95Z" transform="translate(-65.4 -146.66)"/>
    <path d="M334.29,321.21h8.9l14.08,44.55V321.21h6.33v62.36h-7.22l-15.77-50.69v50.69h-6.32Z" transform="translate(-65.4 -146.66)"/>
    <path d="M385.51,321.21h14.26c9.62,0,14.07,5.08,14.07,15.15v32.07c0,10.07-4.45,15.14-14.07,15.14H385.51Zm14.08,56c4.9,0,7.3-2.41,7.3-8.55V336c0-6.15-2.4-8.47-7.3-8.47h-7.13v49.72Z" transform="translate(-65.4 -146.66)"/>
  </g>
</svg>
