<svg xmlns="http://www.w3.org/2000/svg" viewBox="0 0 515.38 237.92">
  <g>
    <path d="M148.18,382.72v-34c0-9.24,4.93-14.7,13.73-14.7s13.73,5.46,13.73,14.7v6.33h-6.51v-6.77c0-5.28-2.73-8-7-8s-7,2.73-7,8v34.85c0,5.28,2.73,8,7,8s7-2.73,7-8v-8.62h6.51v8.18c0,9.16-4.84,14.7-13.73,14.7S148.18,391.88,148.18,382.72Z" transform="translate(-133.58 -159.5)"/>
    <path d="M221.59,382.19v-33c0-9.77,5-15.14,14.08-15.14s14.18,5.37,14.18,15.14v33c0,9.77-5,15.23-14.18,15.23S221.59,392,221.59,382.19Zm21.39.44V348.75c0-5.81-2.64-8.45-7.31-8.45s-7.21,2.64-7.21,8.45v33.88c0,5.9,2.64,8.54,7.21,8.54S243,388.53,243,382.63Z" transform="translate(-133.58 -159.5)"/>
    <path d="M297.12,334.93h9.95l9.06,49.2,9-49.2h10v61.61h-6.61v-51.4l-9.77,51.4H313l-9.77-51.4v51.4h-6.08Z" transform="translate(-133.58 -159.5)"/>
    <path d="M383.12,334.93h9.95l9.07,49.2,9-49.2h10v61.61h-6.6v-51.4l-9.77,51.4H399l-9.77-51.4v51.4h-6.08Z" transform="translate(-133.58 -159.5)"/>
    <path d="M489.37,383.43H475.11l-2.28,13.11H466.4l11.44-61.61h9.24l11.53,61.61h-6.95Zm-1.05-6-6.16-34.68-6,34.68Z" transform="translate(-133.58 -159.5)"/>
    <path d="M544,334.93h8.8l13.91,44v-44h6.25v61.61h-7.13L550.2,346.46v50.08H544Z" transform="translate(-133.58 -159.5)"/>
    <path d="M621,334.93h14.08c9.5,0,13.9,5,13.9,15v31.69c0,9.94-4.4,15-13.9,15H621Zm13.9,55.36c4.84,0,7.22-2.38,7.22-8.45v-32.3c0-6.07-2.38-8.36-7.22-8.36h-7v49.11Z" transform="translate(-133.58 -159.5)"/>
  </g>
  <g>
    <path d="M428.09,220.06V167.25a7.51,7.51,0,0,1,7.54-7.54h5.87a7.51,7.51,0,0,1,7.54,7.54V293.41A7.51,7.51,0,0,1,441.5,301h-5.87a7.51,7.51,0,0,1-7.54-7.55v-52.6H404.82v52.6a7.51,7.51,0,0,1-7.54,7.55h-5.87a7.51,7.51,0,0,1-7.54-7.55V167.25a7.51,7.51,0,0,1,7.54-7.54h5.87a7.51,7.51,0,0,1,7.54,7.54v52.81Z" transform="translate(-133.58 -159.5)"/>
    <path d="M486.55,293.41A7.65,7.65,0,0,1,479,301h-5.87a7.51,7.51,0,0,1-7.54-7.55V167.25a7.51,7.51,0,0,1,7.54-7.54H479a7.64,7.64,0,0,1,7.54,7.54Z" transform="translate(-133.58 -159.5)"/>
    <path d="M537.48,245.21l18.65-79.84c.63-3.15,4.19-5.87,7.33-5.87h6.08a7.43,7.43,0,0,1,7.34,9.22L547.11,294.88a8,8,0,0,1-7.33,5.87h-4.4a7.61,7.61,0,0,1-7.33-5.87L498.29,168.72c-1.26-4.82,2.09-9.22,7.33-9.22h5.87a8.26,8.26,0,0,1,7.33,5.87Z" transform="translate(-133.58 -159.5)"/>
    <path d="M641.42,159.71a7.51,7.51,0,0,1,7.54,7.54v5.66a7.52,7.52,0,0,1-7.54,7.55H609.36v39.4h26.4a7.51,7.51,0,0,1,7.54,7.54v5.66a7.51,7.51,0,0,1-7.54,7.54h-26.4v39.61h32.06a7.52,7.52,0,0,1,7.54,7.55v5.65a7.51,7.51,0,0,1-7.54,7.55H596.15a7.51,7.51,0,0,1-7.54-7.55V167.25a7.51,7.51,0,0,1,7.54-7.54Z" transform="translate(-133.58 -159.5)"/>
  </g>
  <path d="M342.47,237a13,13,0,1,0,0-14.53h-16.1l-9.75-16.9h25.85a13,13,0,1,0,0-14.52l-34.24,0L298,173.3a14,14,0,0,0-24.28,0l-10.24,17.75H243.11l6-10.47a14,14,0,0,0-12.14-21H180a14.05,14.05,0,0,0-12.14,7l-32.41,56.14a14.07,14.07,0,0,0,0,14l32.42,56.14a14,14,0,0,0,12.13,7h57a14,14,0,0,0,12.14-21l-6-10.42H263.5l10.2,17.68a14,14,0,0,0,24.28,0l10.2-17.66h34.29a13,13,0,1,0,0-14.52H316.56L326.31,237Zm-87.4-31.45-9.75,16.89H225l9.75-16.89Zm-74.78,79.75-32.11-55.63,32.11-55.63h55.86l-28.08,48.63a14.07,14.07,0,0,0,0,14l28.08,48.62Zm54.47-31.45L225,237h20.35l9.76,16.9Zm51.08,24.19-27.92-48.37,27.92-48.36,27.92,48.36Z" transform="translate(-133.58 -159.5)"/>
</svg>
