<svg xmlns="http://www.w3.org/2000/svg" xmlns:xlink="http://www.w3.org/1999/xlink" viewBox="10 10 70 60">
  <g style="isolation: isolate">
    <g>
      <path d="M210.52,132.69H179.2l-15.66,27.13,15.66,27.12h31.32l15.66-27.12Zm-9.09,32.06a4,4,0,0,1-2,.53,4.76,4.76,0,0,1-.65-.06v12a4,4,0,0,1-7.91,0v-12a3.89,3.89,0,0,1-2.62-.48,3.94,3.94,0,0,1-1.44-5.4l4.59-8a4,4,0,0,1,6.85,0l4.6,8A4,4,0,0,1,201.43,164.75Zm.62-18.34H187.67a4,4,0,1,1,0-7.91h14.38a4,4,0,0,1,0,7.91Z" transform="translate(-150.48 -119.52)" style="fill: #f3b41b"/>
    </g>
  </g>
</svg>
