<svg xmlns="http://www.w3.org/2000/svg" viewBox="0 0 364 487.07">
  <g>
    <path d="M465.88,273.49a14.5,14.5,0,1,0-14.5-14.5,14.16,14.16,0,0,0,.15,2l-63.06,34.58V215l74-47.56a14.5,14.5,0,1,0,7.41-26.95,14.43,14.43,0,0,0-14,18.12l-67.39,43.31V118.74a14.52,14.52,0,1,0-11-.76v90.85l-70.65,41.09V69.22a14.51,14.51,0,1,0-11,.35v459h11V450.89l29.65-17.41v95h11V427l31-18.21V528.5h11v-221l67.59-37.06A14.41,14.41,0,0,0,465.88,273.49ZM378.47,396.05l-31,18.21V324.38a14.52,14.52,0,1,0-11,.06v96.28l-29.65,17.42V262.65l71.65-41.09v82.72h0Z" transform="translate(-207.38 -41.49)" style="fill: #a3b696"/>
    <path d="M469.88,361.49a14.56,14.56,0,1,0-14.26-11.93L418,371.32V528.5h11V377.67l32.57-18.82A14.43,14.43,0,0,0,469.88,361.49Z" transform="translate(-207.38 -41.49)" style="fill: #a3b696"/>
    <path d="M554.88,408.49A14.62,14.62,0,1,0,540.6,396.4l-78.74,48.24-1.13,83.78,11,.15,1-77.72,73.63-45.11A14.39,14.39,0,0,0,554.88,408.49Z" transform="translate(-207.38 -41.49)" style="fill: #a3b696"/>
    <path d="M571.38,467a14.5,14.5,0,1,0-20.28,13.3V528.5h11v-48A14.48,14.48,0,0,0,571.38,467Z" transform="translate(-207.38 -41.49)" style="fill: #a3b696"/>
    <path d="M221.88,192.49A14.5,14.5,0,0,0,216,220.25v82.17l-2.55,226,11,.13L227,302.49v-82a14.49,14.49,0,0,0-5.13-28Z" transform="translate(-207.38 -41.49)" style="fill: #a3b696"/>
    <path d="M236.38,112a14.52,14.52,0,1,0-7.13,12.48l25.13,14.23V528.5h11V132.29L235.91,115.6A14.35,14.35,0,0,0,236.38,112Z" transform="translate(-207.38 -41.49)" style="fill: #a3b696"/>
  </g>
</svg>
