<svg xmlns="http://www.w3.org/2000/svg" viewBox="0 0 515.38 237.15">
  <g>
    <path d="M452.76,144.12V91.31a7.52,7.52,0,0,1,7.55-7.55h5.86a7.52,7.52,0,0,1,7.55,7.55V217.47a7.51,7.51,0,0,1-7.55,7.54h-5.86a7.51,7.51,0,0,1-7.55-7.54v-52.6H429.5v52.6A7.52,7.52,0,0,1,422,225h-5.86a7.51,7.51,0,0,1-7.55-7.54V91.31a7.52,7.52,0,0,1,7.55-7.55H422a7.52,7.52,0,0,1,7.55,7.55v52.81Z" transform="translate(-158.26 -83.55)"/>
    <path d="M511.23,217.47a7.65,7.65,0,0,1-7.55,7.54h-5.86a7.51,7.51,0,0,1-7.55-7.54V91.31a7.52,7.52,0,0,1,7.55-7.55h5.86a7.65,7.65,0,0,1,7.55,7.55Z" transform="translate(-158.26 -83.55)"/>
    <path d="M562.15,169.27,580.8,89.42c.63-3.14,4.19-5.87,7.34-5.87h6.07a7.42,7.42,0,0,1,7.34,9.22L571.79,218.93a8,8,0,0,1-7.33,5.87h-4.41a7.61,7.61,0,0,1-7.33-5.87L523,92.77c-1.26-4.82,2.09-9.22,7.34-9.22h5.86a8.29,8.29,0,0,1,7.34,5.87Z" transform="translate(-158.26 -83.55)"/>
    <path d="M666.09,83.76a7.52,7.52,0,0,1,7.55,7.55V97a7.51,7.51,0,0,1-7.55,7.54H634v39.4h26.41a7.51,7.51,0,0,1,7.54,7.54v5.66a7.52,7.52,0,0,1-7.54,7.55H634v39.61h32.06a7.51,7.51,0,0,1,7.55,7.54v5.66a7.51,7.51,0,0,1-7.55,7.54H620.83a7.52,7.52,0,0,1-7.55-7.54V91.31a7.52,7.52,0,0,1,7.55-7.55Z" transform="translate(-158.26 -83.55)"/>
  </g>
  <path d="M367.14,161.07a13,13,0,1,0,0-14.52h-16.1l-9.75-16.89h25.84a13,13,0,1,0,0-14.52H332.91L322.66,97.36a14,14,0,0,0-24.28,0L288.13,115.1H267.79l6-10.48a14,14,0,0,0-12.14-21h-57a14.07,14.07,0,0,0-12.14,7l-32.41,56.14a14,14,0,0,0,0,14l32.41,56.14a14.06,14.06,0,0,0,12.14,7h57a14,14,0,0,0,12.14-21l-6-10.43h20.35l10.21,17.68a14,14,0,0,0,24.28,0l10.19-17.66h34.29a13,13,0,1,0,0-14.53H341.24L351,161.06Zm-87.39-31.45L270,146.51H249.66l9.75-16.88ZM205,209.38l-32.12-55.63L205,98.12h55.85l-28.07,48.62a14,14,0,0,0,0,14l28.07,48.62Zm54.46-31.45L249.68,161H270l9.75,16.89Zm51.08,24.19-27.92-48.37,27.92-48.37,27.93,48.37Z" transform="translate(-158.26 -83.55)"/>
  <g>
    <path d="M330.32,259.23h24.07v6.14H337.07V286H351v6.15H337.07v27.71h-6.75Z" transform="translate(-158.26 -83.55)"/>
    <path d="M372.92,259.23h6.75v60.61h-6.75Z" transform="translate(-158.26 -83.55)"/>
    <path d="M400.89,259.23h6.75v54.46H425v6.15H400.89Z" transform="translate(-158.26 -83.55)"/>
    <path d="M443.48,259.23h24.86v6.14h-18.1v19.75H465v6.14H450.24v22.43h18.1v6.15H443.48Z" transform="translate(-158.26 -83.55)"/>
    <path d="M485.74,306v-3.37h6.41v3.9c0,5.45,2.68,8.05,7,8.05s7.1-2.6,7.1-8.14-2.34-9.18-9.35-15c-8.4-6.93-11.17-11.78-11.17-18.62,0-9.09,4.85-14.46,13.59-14.46s13.34,5.37,13.34,14.64v2.42h-6.41v-2.86c0-5.45-2.51-8.05-6.93-8.05s-6.92,2.6-6.92,7.88c0,5,2.42,8.49,9.61,14.37,8.31,6.93,11,11.78,11,19.14,0,9.44-4.93,14.81-13.76,14.81S485.74,315.34,485.74,306Z" transform="translate(-158.26 -83.55)"/>
  </g>
</svg>
