<svg xmlns="http://www.w3.org/2000/svg" viewBox="0 0 124.58 144.88">
  <rect width="124.58" height="144.88" style="fill: none"/>
  <g>
    <path d="M232.42,202.35a3.92,3.92,0,0,1-2-.53l-14.27-8.24a4,4,0,0,1-1.46-5.46l1.88-3.26-4.73-2.73L210,185.39a4,4,0,0,1-5.46,1.46l-17.39-10a4,4,0,0,1-2-3.47V156.92a4,4,0,0,1,4-4h5.27v-5.46h-5.27a4,4,0,0,1-4-4V123.35a4,4,0,0,1,2-3.46l15.12-8.72a4,4,0,0,1,5.48,1.49l2.65,4.7,4.72-2.73-2.68-4.76a4,4,0,0,1,1.48-5.43l16.54-9.55a4,4,0,0,1,4,0l16,9.25a4,4,0,0,1,1.54,5.34l-2.06,3.87,4.72,2.73,1.92-3.62a4,4,0,0,1,5.54-1.59l15.63,9a4,4,0,0,1,2,3.46v18.54a4,4,0,0,1-4,4h-4v5.45h4a4,4,0,0,1,4,4v18a4,4,0,0,1-2,3.47l-15.18,8.76a4,4,0,0,1-3,.4,4,4,0,0,1-2.43-1.87l-1.68-2.94-4.72,2.73,1.69,2.95a4,4,0,0,1-1.47,5.46l-16.47,9.51A4,4,0,0,1,232.42,202.35Zm-8.81-13.7,8.81,5.09,11-6.37-1.69-3a4,4,0,0,1,1.47-5.45l11.65-6.73a4.06,4.06,0,0,1,3.05-.4,4,4,0,0,1,2.42,1.87l1.69,2.94,9.7-5.6V159.34h-4a4,4,0,0,1-4-4V141.89a4,4,0,0,1,4-4h4V125.66l-10-5.79-1.93,3.62a4,4,0,0,1-5.53,1.59l-11.65-6.73A4,4,0,0,1,241,113l2.06-3.87L232.42,103l-11.11,6.41,2.69,4.76a4,4,0,0,1-1.48,5.44l-11.66,6.72a4,4,0,0,1-5.48-1.49l-2.65-4.7-9.62,5.55v13.8h5.27a4,4,0,0,1,4,4v13.46a4,4,0,0,1-4,4h-5.27v10.13L205,177.93l1.89-3.27a4,4,0,0,1,5.46-1.46L224,179.93a4,4,0,0,1,1.47,5.46Z" transform="translate(-170.12 -83.59)"/>
    <path d="M241.29,167.72H223.55a4,4,0,0,1-3.47-2l-8.87-15.37a4,4,0,0,1,0-4L220.08,131a4,4,0,0,1,3.47-2h17.74a4,4,0,0,1,3.46,2l8.87,15.36a4,4,0,0,1,0,4l-8.87,15.37A4,4,0,0,1,241.29,167.72Zm-15.43-8H239l6.56-11.37L239,137H225.86l-6.57,11.36Z" transform="translate(-170.12 -83.59)"/>
  </g>
</svg>
