<svg xmlns="http://www.w3.org/2000/svg" viewBox="0 0 76.25 76.82">
  <g>
    <circle cx="38.18" cy="56.76" r="18.52" style="fill: none;stroke: #010101;stroke-miterlimit: 10;stroke-width: 3.0866233706474304px"/>
    <g>
      <path d="M195.13,174.89a18.55,18.55,0,0,1,1.92-8.22l-16.23-8.12A2.63,2.63,0,0,0,177,160.9V189a2.63,2.63,0,0,0,3.81,2.35l16.28-8.14A18.39,18.39,0,0,1,195.13,174.89Z" transform="translate(-175.47 -118.13)" style="fill: none;stroke: #010101;stroke-miterlimit: 10;stroke-width: 3.0866233706474304px"/>
      <path d="M230.23,166.63a18.53,18.53,0,0,1,0,16.61l16.19,8.09a2.63,2.63,0,0,0,3.81-2.35V160.9a2.63,2.63,0,0,0-3.81-2.35Z" transform="translate(-175.47 -118.13)" style="fill: none;stroke: #010101;stroke-miterlimit: 10;stroke-width: 3.0866233706474304px"/>
    </g>
    <path d="M232.17,138.19a18.52,18.52,0,1,0-37,0c0,.11,0,.23,0,.34h37C232.17,138.42,232.17,138.3,232.17,138.19Z" transform="translate(-175.47 -118.13)" style="fill: none;stroke: #010101;stroke-miterlimit: 10;stroke-width: 3.0866233706474304px"/>
    <line x1="38.13" y1="20.41" x2="38.13" y2="38.24" style="fill: none;stroke: #010101;stroke-miterlimit: 10;stroke-width: 3.0866233706474304px"/>
  </g>
</svg>
