<svg xmlns="http://www.w3.org/2000/svg" viewBox="0 0 94.31 75.79">
  <path d="M236.46,159.56h-49c-20.09,0-36.68,16.14-36.75,36.23a36.36,36.36,0,1,0,72.71.13c0-.35,0-.69,0-1h13a5.51,5.51,0,0,0,5.51-5.51V165.07A5.51,5.51,0,0,0,236.46,159.56Z" transform="translate(-149.2 -158.02)" style="fill: none;stroke: #010101;stroke-linecap: round;stroke-linejoin: round;stroke-width: 3.0866233706474304px"/>
  <circle cx="37.9" cy="37.9" r="14.4" style="fill: none;stroke: #010101;stroke-linecap: round;stroke-linejoin: round;stroke-width: 3.0866233706474304px"/>
  <path d="M187.09,210.32S191.2,228.5,171,228.5" transform="translate(-149.2 -158.02)" style="fill: none;stroke: #010101;stroke-linecap: round;stroke-linejoin: round;stroke-width: 3.0866233706474304px"/>
  <path d="M197.28,206.1s15.76,10,1.45,24.26" transform="translate(-149.2 -158.02)" style="fill: none;stroke: #010101;stroke-linecap: round;stroke-linejoin: round;stroke-width: 3.0866233706474304px"/>
  <path d="M201.5,195.92s18.18-4.11,18.18,16.12" transform="translate(-149.2 -158.02)" style="fill: none;stroke: #010101;stroke-linecap: round;stroke-linejoin: round;stroke-width: 3.0866233706474304px"/>
  <path d="M187.09,181.51s-4.1-18.18,16.13-18.18c0,0,18.32,1.66,18.32,18.67v2.28c-14.3-14.31-24.26,1.45-24.26,1.45" transform="translate(-149.2 -158.02)" style="fill: none;stroke: #010101;stroke-linecap: round;stroke-linejoin: round;stroke-width: 3.0866233706474304px"/>
  <path d="M176.91,185.73s-15.76-10-1.46-24.26" transform="translate(-149.2 -158.02)" style="fill: none;stroke: #010101;stroke-linecap: round;stroke-linejoin: round;stroke-width: 3.0866233706474304px"/>
  <path d="M172.69,195.92s-18.18,4.1-18.18-16.13" transform="translate(-149.2 -158.02)" style="fill: none;stroke: #010101;stroke-linecap: round;stroke-linejoin: round;stroke-width: 3.0866233706474304px"/>
  <path d="M176.91,206.1s-10,15.76-24.26,1.46" transform="translate(-149.2 -158.02)" style="fill: none;stroke: #010101;stroke-linecap: round;stroke-linejoin: round;stroke-width: 3.0866233706474304px"/>
  <path d="M223.43,194.89" transform="translate(-149.2 -158.02)" style="fill: none;stroke: #010101;stroke-linecap: round;stroke-linejoin: round;stroke-width: 3.0866233706474304px"/>
</svg>
