<svg xmlns="http://www.w3.org/2000/svg" viewBox="0 0 107.36 76.16">
  <g>
    <polygon points="106.36 55.59 85.64 43.62 85.64 67.55 106.36 55.59" style="fill: #010101;stroke: #010101;stroke-linecap: round;stroke-linejoin: round;stroke-width: 1.9888885952847486px"/>
    <polygon points="66.58 55.59 45.85 43.62 45.85 67.55 66.58 55.59" style="fill: #010101;stroke: #010101;stroke-linecap: round;stroke-linejoin: round;stroke-width: 1.9888885952847486px"/>
    <polygon points="33.65 55.59 12.93 43.62 12.93 67.55 33.65 55.59" style="fill: #010101;stroke: #010101;stroke-linecap: round;stroke-linejoin: round;stroke-width: 1.9888885952847486px"/>
    <path d="M153.26,130.11v61.24a6,6,0,0,0,6,6h61.24a6,6,0,0,0,6-6V166.69a6,6,0,0,0-6-6H195.8a6,6,0,0,1-6-6V130.11a6,6,0,0,0-6-6H159.22A6,6,0,0,0,153.26,130.11Z" transform="translate(-151.76 -122.65)" style="fill: none;stroke: #010101;stroke-linecap: round;stroke-linejoin: round;stroke-width: 2.99382545100914px"/>
  </g>
</svg>
