<svg xmlns="http://www.w3.org/2000/svg" viewBox="0 0 76.25 40.13">
  <g>
    <circle cx="38.18" cy="20.06" r="18.52" style="fill: none;stroke: #010101;stroke-miterlimit: 10;stroke-width: 3.0866233706474304px"/>
    <g>
      <path d="M303,205a18.4,18.4,0,0,1,1.92-8.21l-16.24-8.12a2.63,2.63,0,0,0-3.8,2.35V219.1a2.63,2.63,0,0,0,3.8,2.35L305,213.31A18.53,18.53,0,0,1,303,205Z" transform="translate(-283.35 -184.94)" style="fill: none;stroke: #010101;stroke-miterlimit: 10;stroke-width: 3.0866233706474304px"/>
      <path d="M338.11,196.74a18.45,18.45,0,0,1-.05,16.61l16.2,8.1a2.63,2.63,0,0,0,3.8-2.35V191a2.63,2.63,0,0,0-3.8-2.35Z" transform="translate(-283.35 -184.94)" style="fill: none;stroke: #010101;stroke-miterlimit: 10;stroke-width: 3.0866233706474304px"/>
    </g>
  </g>
</svg>
