<svg xmlns="http://www.w3.org/2000/svg" viewBox="0 0 112.83 76.14">
  <g>
    <path d="M239.44,225v-12a3.11,3.11,0,0,0-3.11-3.11H155.44a3.11,3.11,0,0,0-3.11,3.11v12a3.11,3.11,0,0,1-3.11,3.11h-5.1a3.11,3.11,0,0,0-3.11,3.11v30.82a3.11,3.11,0,0,0,3.11,3.11h5.1a3.11,3.11,0,0,1,3.11,3.11V279.9a3.1,3.1,0,0,0,3.11,3.1h80.89a3.1,3.1,0,0,0,3.11-3.1V268.28a3.11,3.11,0,0,1,3.11-3.11h5.1a3.11,3.11,0,0,0,3.11-3.11V231.24a3.11,3.11,0,0,0-3.11-3.11h-5.1A3.11,3.11,0,0,1,239.44,225Z" transform="translate(-139.47 -208.41)" style="fill: none;stroke: #010101;stroke-miterlimit: 10;stroke-width: 3.0866233706474304px"/>
    <line x1="99.31" y1="2.73" x2="14.05" y2="73.93" style="fill: none;stroke: #010101;stroke-miterlimit: 10;stroke-width: 3.0866233706474304px"/>
  </g>
</svg>
