<svg xmlns="http://www.w3.org/2000/svg" viewBox="0 0 94.31 75.79">
  <g>
    <path d="M183.28,157.92l-4.11-10.49L174.63,159c-1.48,3.78-3.28,7.42-5.07,11.06a10.63,10.63,0,0,0-1,6,10.71,10.71,0,0,0,21.34-1.28,10.62,10.62,0,0,0-1.32-5.14A98,98,0,0,1,183.28,157.92Z" transform="translate(-141.27 -129.59)" style="fill: none;stroke: #010101;stroke-linecap: round;stroke-linejoin: round;stroke-width: 3.0866233706474304px"/>
    <path d="M229.91,131.14H179.57c-20.1,0-36.68,16.13-36.75,36.22a36.35,36.35,0,1,0,72.7.13c0-.35,0-.69,0-1h14.4a4.13,4.13,0,0,0,4.13-4.14v-27A4.13,4.13,0,0,0,229.91,131.14Z" transform="translate(-141.27 -129.59)" style="fill: none;stroke: #010101;stroke-linecap: round;stroke-linejoin: round;stroke-width: 3.0866233706474304px"/>
  </g>
</svg>
