<svg xmlns="http://www.w3.org/2000/svg" viewBox="0 0 94.31 75.79">
  <g>
    <path d="M373,162.93H322.62a38.17,38.17,0,0,0-38.29,37.77,37.9,37.9,0,0,0,75.79.64H373a5.68,5.68,0,0,0,5.68-5.68v-27A5.69,5.69,0,0,0,373,162.93Zm-42.57,54.33a12.27,12.27,0,0,1-8.19,3.12,12.59,12.59,0,0,1-1.37-.08,12.24,12.24,0,0,1-9.6-17.56l0-.09c1.73-3.52,3.53-7.16,5-10.85l4.54-11.59a1.54,1.54,0,0,1,2.87,0l4.11,10.49A96.79,96.79,0,0,0,333,202.25a12.24,12.24,0,0,1-2.57,15Z" transform="translate(-284.33 -162.93)" style="fill: #010101"/>
    <path d="M324.89,191.82,322.23,185l-3.11,7.93c-1.49,3.81-3.31,7.51-5.08,11.08l0,.1a9.16,9.16,0,1,0,16.26-.37A101,101,0,0,1,324.89,191.82Z" transform="translate(-284.33 -162.93)" style="fill: #010101"/>
  </g>
</svg>
