<svg xmlns="http://www.w3.org/2000/svg" viewBox="0 0 197.42 93.14">
  <g>
    <path d="M78.55,124.75v-1.33h2.51V125c0,2.14,1.06,3.16,2.76,3.16s2.78-1,2.78-3.19-.91-3.61-3.67-5.89c-3.3-2.71-4.38-4.62-4.38-7.3,0-3.57,1.9-5.68,5.33-5.68s5.24,2.11,5.24,5.74v1H86.6v-1.13c0-2.14-1-3.16-2.72-3.16s-2.72,1-2.72,3.1,1,3.33,3.78,5.64c3.26,2.72,4.32,4.62,4.32,7.51,0,3.71-1.94,5.82-5.41,5.82S78.55,128.42,78.55,124.75Z" transform="translate(-64.68 -37.38)" style="fill: #383232"/>
    <path d="M110.44,119.75l-4.8-13.36h2.83l3.4,9.93,3.4-9.93h2.61l-4.79,13.36v10.44h-2.65Z" transform="translate(-64.68 -37.38)" style="fill: #383232"/>
    <path d="M134.07,124.75v-1.33h2.51V125c0,2.14,1.06,3.16,2.76,3.16s2.79-1,2.79-3.19-.92-3.61-3.68-5.89c-3.29-2.71-4.38-4.62-4.38-7.3,0-3.57,1.9-5.68,5.34-5.68s5.23,2.11,5.23,5.74v1h-2.51v-1.13c0-2.14-1-3.16-2.72-3.16s-2.72,1-2.72,3.1.95,3.33,3.77,5.64c3.26,2.72,4.32,4.62,4.32,7.51,0,3.71-1.94,5.82-5.41,5.82S134.07,128.42,134.07,124.75Z" transform="translate(-64.68 -37.38)" style="fill: #383232"/>
    <path d="M165.69,108.8h-4.22v-2.41h11.09v2.41h-4.22v21.39h-2.65Z" transform="translate(-64.68 -37.38)" style="fill: #383232"/>
    <path d="M190,106.39h9.76v2.41h-7.11v7.75h5.78V119h-5.78v8.8h7.11v2.42H190Z" transform="translate(-64.68 -37.38)" style="fill: #383232"/>
    <path d="M217.44,106.39h3.84l3.5,19,3.47-19h3.87v23.8h-2.55V110.33l-3.77,19.86h-2.24l-3.78-19.86v19.86h-2.34Z" transform="translate(-64.68 -37.38)" style="fill: #383232"/>
    <path d="M250,124.75v-1.33h2.52V125c0,2.14,1,3.16,2.75,3.16s2.79-1,2.79-3.19-.92-3.61-3.67-5.89c-3.3-2.71-4.39-4.62-4.39-7.3,0-3.57,1.91-5.68,5.34-5.68s5.24,2.11,5.24,5.74v1H258v-1.13c0-2.14-1-3.16-2.72-3.16s-2.72,1-2.72,3.1.95,3.33,3.78,5.64c3.26,2.72,4.31,4.62,4.31,7.51,0,3.71-1.93,5.82-5.4,5.82S250,128.42,250,124.75Z" transform="translate(-64.68 -37.38)" style="fill: #383232"/>
  </g>
  <g>
    <path d="M182.28,62.23V43.15A2.71,2.71,0,0,1,185,40.42h2.12a2.71,2.71,0,0,1,2.72,2.73V88.74a2.71,2.71,0,0,1-2.72,2.73H185a2.71,2.71,0,0,1-2.73-2.73v-19h-8.41v19a2.71,2.71,0,0,1-2.72,2.73H169a2.71,2.71,0,0,1-2.72-2.73V43.15A2.71,2.71,0,0,1,169,40.42h2.13a2.71,2.71,0,0,1,2.72,2.73V62.23Z" transform="translate(-64.68 -37.38)" style="fill: #383232"/>
    <path d="M203.41,88.74a2.77,2.77,0,0,1-2.73,2.73h-2.12a2.71,2.71,0,0,1-2.72-2.73V43.15a2.71,2.71,0,0,1,2.72-2.73h2.12a2.77,2.77,0,0,1,2.73,2.73Z" transform="translate(-64.68 -37.38)" style="fill: #383232"/>
    <path d="M221.81,71.32l6.74-28.85a2.92,2.92,0,0,1,2.65-2.12h2.2a2.68,2.68,0,0,1,2.65,3.33L225.3,89.27a2.91,2.91,0,0,1-2.65,2.12h-1.6a2.76,2.76,0,0,1-2.65-2.12L207.65,43.68a2.61,2.61,0,0,1,2.65-3.33h2.12a3,3,0,0,1,2.65,2.12Z" transform="translate(-64.68 -37.38)" style="fill: #383232"/>
    <path d="M259.38,40.42a2.71,2.71,0,0,1,2.72,2.73v2a2.71,2.71,0,0,1-2.72,2.73H247.79V62.16h9.54a2.71,2.71,0,0,1,2.73,2.72v2.05a2.72,2.72,0,0,1-2.73,2.73h-9.54V84h11.59a2.71,2.71,0,0,1,2.72,2.73v2a2.71,2.71,0,0,1-2.72,2.73H243a2.71,2.71,0,0,1-2.73-2.73V43.15A2.71,2.71,0,0,1,243,40.42Z" transform="translate(-64.68 -37.38)" style="fill: #383232"/>
  </g>
  <path d="M149.49,68.84a5.28,5.28,0,1,0,0-5.9H143l-4-6.86h10.49a5.29,5.29,0,1,0,0-5.89h-13.9L131.43,43a5.7,5.7,0,0,0-9.86,0l-4.16,7.21h-8.26l2.46-4.25a5.7,5.7,0,0,0-4.93-8.54H83.53a5.7,5.7,0,0,0-4.93,2.85L65.44,63a5.72,5.72,0,0,0,0,5.69L78.6,91.51a5.71,5.71,0,0,0,4.93,2.84h23.15a5.7,5.7,0,0,0,4.93-8.54l-2.45-4.23h8.27l4.14,7.18a5.69,5.69,0,0,0,9.86,0l4.14-7.17h13.92a5.29,5.29,0,1,0,0-5.9H139l4-6.86ZM114,56.07l-4,6.86h-8.26l4-6.86ZM83.65,88.45l-13-22.58,13-22.59h22.67L94.92,63a5.72,5.72,0,0,0,0,5.69l11.4,19.74Zm22.11-12.77-4-6.86h8.26l4,6.86ZM126.5,85.5,115.16,65.87,126.5,46.23l11.34,19.64Z" transform="translate(-64.68 -37.38)" style="fill: #383232"/>
</svg>
