<svg xmlns="http://www.w3.org/2000/svg" viewBox="0 0 169.88 102.43">
  <path d="M272.29,108.76a9.5,9.5,0,1,0,0-10.61H260.54l-7.12-12.33h18.87a9.5,9.5,0,1,0,0-10.6h-25l-7.49-13a10.23,10.23,0,0,0-17.72,0l-7.48,13H199.76l4.41-7.64a10.23,10.23,0,0,0-8.86-15.35H153.69a10.28,10.28,0,0,0-8.87,5.11l-23.66,41a10.27,10.27,0,0,0,0,10.23l23.67,41a10.23,10.23,0,0,0,8.86,5.11h41.62a10.23,10.23,0,0,0,8.86-15.34l-4.39-7.61h14.86l7.45,12.91a10.24,10.24,0,0,0,17.72,0l7.45-12.9h25a9.5,9.5,0,1,0,0-10.6H253.38l7.12-12.33Zm-63.8-23-7.12,12.33H186.52l7.12-12.33ZM153.9,144l-23.45-40.61L153.9,62.8h40.77L174.18,98.3a10.27,10.27,0,0,0,0,10.23L194.67,144Zm39.76-23-7.12-12.33h14.85l7.13,12.34ZM231,138.72l-20.38-35.31L231,68.1l20.39,35.31Z" transform="translate(-119.8 -52.2)" style="fill: #65695c"/>
</svg>
