<svg xmlns="http://www.w3.org/2000/svg" viewBox="0 0 232.63 67.93">
  <g>
    <path fill="#a1b593" d="M482.69,221.13h-2.82a3.61,3.61,0,0,0-3.62,3.63v25.36H465.07V224.76a3.61,3.61,0,0,0-3.62-3.63h-2.82a3.61,3.61,0,0,0-3.62,3.63V241l-9.56-16.56a6.79,6.79,0,0,0-5.86-3.38H412.07a6.77,6.77,0,0,0-5.86,10.15l2.92,5h-9.82l-4.94-8.57a6.77,6.77,0,0,0-11.72,0l-4.95,8.58H361.18a6.29,6.29,0,1,0,0,7h12.47l-4.7,8.15h-7.77a6.29,6.29,0,1,0,0,7H369l4.7,8.15h-12.5a6.29,6.29,0,1,0,0,7h16.55l4.92,8.53a6.77,6.77,0,0,0,11.72,0l4.92-8.54h9.83l-2.91,5a6.77,6.77,0,0,0,5.86,10.15h27.52a6.79,6.79,0,0,0,5.86-3.38L455,268.87v16.47a3.61,3.61,0,0,0,3.62,3.63h2.82a3.61,3.61,0,0,0,3.62-3.63V260.08h11.18v25.26a3.61,3.61,0,0,0,3.62,3.63h2.82a3.61,3.61,0,0,0,3.62-3.63V224.76A3.61,3.61,0,0,0,482.69,221.13ZM413.18,243.3l4.7,8.15h-9.82l-4.7-8.15Zm-24.67,35L375,255l13.48-23.34L402,255Zm14.83-11.67,4.71-8.15h9.82l-4.71,8.16Zm36.11,15.18h-27L426,258.33a6.75,6.75,0,0,0,0-6.76L412.49,228.1h27L455,255Z" transform="translate(-349.68 -221.03)"/>
    <path fill="#a1b593" d="M500.7,221.13h-2.82a3.61,3.61,0,0,0-3.62,3.63v60.58a3.61,3.61,0,0,0,3.62,3.63h2.82a3.67,3.67,0,0,0,3.62-3.63V224.76A3.67,3.67,0,0,0,500.7,221.13Z" transform="translate(-349.68 -221.03)"/>
    <path  fill="#a1b593" d="M544.17,221h-2.91a3.89,3.89,0,0,0-3.53,2.82l-9,38.35-9-38.35A4,4,0,0,0,516.3,221h-2.82a3.47,3.47,0,0,0-3.52,4.43l14.29,60.59a3.65,3.65,0,0,0,3.52,2.81h2.11a3.85,3.85,0,0,0,3.53-2.81l14.29-60.59A3.57,3.57,0,0,0,544.17,221Z" transform="translate(-349.68 -221.03)"/>
    <path  fill="#a1b593" d="M578.69,231.1a3.61,3.61,0,0,0,3.63-3.62v-2.72a3.61,3.61,0,0,0-3.63-3.63H557a3.61,3.61,0,0,0-3.62,3.63v60.58A3.61,3.61,0,0,0,557,289h21.74a3.61,3.61,0,0,0,3.63-3.63v-2.71a3.61,3.61,0,0,0-3.63-3.63H563.3V260H576a3.61,3.61,0,0,0,3.62-3.62v-2.72A3.61,3.61,0,0,0,576,250H563.3V231.1Z" transform="translate(-349.68 -221.03)"/>
  </g>
</svg>
